<?xml version="1.0" encoding="UTF-8" standalone="no"?>
<svg width="18px" height="17px" viewBox="0 0 18 17" version="1.1" xmlns="http://www.w3.org/2000/svg" xmlns:xlink="http://www.w3.org/1999/xlink">
    <!-- Generator: Sketch 3.8.3 (29802) - http://www.bohemiancoding.com/sketch -->
    <title>Group 2</title>
    <desc>Created with Sketch.</desc>
    <defs></defs>
    <g id="6.4-Mocks" stroke="none" stroke-width="1" fill="none" fill-rule="evenodd">
        <g id="Breaking-Page-Indicators" transform="translate(-2014.000000, -85.000000)">
            <g id="Group-2" transform="translate(2014.000000, 85.000000)">
                <g id="Slow-SQ">
                    <rect id="Rectangle-2351" fill="#FF9D00" x="0" y="0" width="12" height="12" rx="2"></rect>
                    <path d="M8.75322009,8.21807326 C9.46906155,7.7396808 9.94203758,6.92407233 9.94203758,5.99996068 C9.94203758,4.52983865 8.74570699,3.33333333 7.27558496,3.33333333 C5.80546292,3.33333333 4.60895761,4.52983865 4.60895761,5.99996068 C4.60895761,6.42453835 4.7092488,6.8257031 4.8860688,7.18213868 C5.05258013,7.21481194 5.48397201,7.29745607 6.16574241,7.41277347 C6.92613831,7.54171928 7.42846786,7.43793362 7.8460566,7.06594767 C8.1074427,6.83321621 8.26242228,6.51312308 8.28216602,6.16437533 C8.30278337,5.81562758 8.18606819,5.47911046 7.95333672,5.21842326 C7.57925409,4.79873784 6.93435031,4.76117232 6.51379127,5.13455606 C6.17797305,5.43350767 6.13569,5.95558096 6.42031429,6.27567408 C6.6436107,6.52622733 7.05438523,6.55488195 7.30004622,6.3364778 C7.39090235,6.25593035 7.44471713,6.14812606 7.45030828,6.03333284 C7.45502581,5.93985586 7.42707008,5.8517953 7.37308057,5.79238937 C7.32468221,5.73927348 7.24762923,5.70991997 7.16830484,5.71061886 C7.10086163,5.71254082 7.01349997,5.73927348 6.95688962,5.79518495 C6.94308647,5.80811447 6.92613831,5.81632647 6.90691875,5.81632647 C6.8653346,5.81632647 6.83196244,5.77876095 6.83196244,5.73315817 C6.83196244,5.70502771 6.84349418,5.68458508 6.85782149,5.66484135 C6.94308647,5.54812617 7.06329612,5.48050824 7.18263215,5.47037429 C7.34442595,5.45674587 7.47546844,5.50304755 7.57925409,5.61696716 C7.68234085,5.73036259 7.73615563,5.88114882 7.72672058,6.04766015 C7.7164119,6.23601189 7.63044802,6.4114341 7.48368043,6.5417777 C7.12200316,6.86396751 6.54052394,6.82517893 6.2136166,6.4586094 C5.82922529,6.02651863 5.88251591,5.32570338 6.32963289,4.92698476 C6.86323792,4.45208677 7.68443753,4.49978623 8.15863663,5.03356598 C8.43994118,5.34946575 8.58181652,5.75692054 8.55735525,6.17940153 C8.53271926,6.60258142 8.34506641,6.99029247 8.02899192,7.2714223 C7.67342996,7.58819568 7.25776318,7.7403797 6.72608011,7.7403797 C6.53912615,7.7403797 6.33714599,7.72116013 6.11874184,7.68446823 C5.36585904,7.55674548 4.56178231,7.41347236 4.45397802,7.39844615 C3.912161,7.3261107 3.46172427,6.95814338 3.44739696,6.41702525 L3.58455477,4.0507473 C3.58455477,3.89856328 3.46102538,3.774335 3.30814247,3.774335 C3.15525957,3.774335 3.03173018,3.89786439 3.03173018,4.0507473 C3.03173018,4.0507473 3.11227763,5.48802135 3.12171269,5.66955888 C3.13953447,6.01428799 2.82206219,6.29070029 2.47261555,6.29070029 C2.11443274,6.29070029 1.79556267,5.99926179 1.82369313,5.64160315 C1.8392435,5.44364162 1.85566749,5.23886589 1.87209149,5.0471944 L1.92940074,4.06769546 C1.92940074,3.91551144 1.80587135,3.79128316 1.65298844,3.79128316 C1.50010553,3.79128316 1.37657614,3.91481255 1.37657614,4.06769546 L1.5111131,6.38627395 C1.5111131,8.01259863 2.43924339,9.33473001 4.06224833,9.33333223 C5.69958059,9.33123555 10.3407562,9.33333223 10.3407562,9.33333223 C10.4744195,9.33333223 10.5823986,9.22482904 10.5823986,9.09168987 C10.5823986,8.95802653 10.4683042,8.8911075 10.3414551,8.85074641 C10.2799525,8.83170157 9.61862471,8.51562708 8.75322009,8.21807326 Z" id="Page-1" fill="#FFFFFF"></path>
                </g>
                <g id="Non-Secure-SQ" transform="translate(6.000000, 5.000000)">
                    <rect id="Rectangle-2351" fill="#FF9D00" x="0" y="0" width="12" height="12" rx="2"></rect>
                    <path d="M3.13021173,8.65528764 C3.25038015,9.12887139 3.75028078,9.48661278 4.34968086,9.48661278 C4.95148431,9.48661278 5.45330764,9.13259661 5.57059201,8.65660949 C5.68847724,9.13259661 6.19030056,9.49923046 6.79162334,9.49923046 C7.3895814,9.49923046 7.88948203,9.16215804 8.01013112,8.69001632 C8.13078022,9.16215804 8.63068085,9.55138355 9.22875908,9.55138355 C9.52028766,9.55138355 9.78778257,9.46257909 10,9.32462574 C8.19374847,6.52037548 9.3146795,2 9.3146795,2 C4.18396861,3.07959309 1.93321409,7.88452739 1.33333333,9.42977311 C1.50601535,9.50583972 1.70225038,9.55186423 1.91062243,9.55186423 C2.51014268,9.55186423 3.01004331,9.12839071 3.13021173,8.65528764 Z" id="shark" fill="#FFFFFF"></path>
                </g>
            </g>
        </g>
    </g>
</svg>