<?xml version="1.0" encoding="UTF-8" standalone="no"?>
<svg width="26px" height="26px" viewBox="0 0 26 26" version="1.1" xmlns="http://www.w3.org/2000/svg" xmlns:xlink="http://www.w3.org/1999/xlink">
    <!-- Generator: Sketch 3.8.3 (29802) - http://www.bohemiancoding.com/sketch -->
    <title>Advertising</title>
    <desc>Created with Sketch.</desc>
    <defs></defs>
    <g id="Week-4" stroke="none" stroke-width="1" fill="none" fill-rule="evenodd">
        <g id="Tracker-List-View" transform="translate(-1861.000000, -1208.000000)">
            <g id="Advertising" transform="translate(1862.000000, 1209.000000)">
                <ellipse id="Oval-375-Copy-17" stroke="#B536B2" fill="#CC53C8" cx="11.8651685" cy="11.8651685" rx="11.8651685" ry="11.8651685"></ellipse>
                <path d="M12.2376407,19.2818271 C12.0500734,19.4686385 11.7574484,19.527088 11.5051332,19.4057802 L6.60319046,17.0552058 C6.28411195,16.9020279 6.15020731,16.520595 6.30338515,16.2018944 C6.45794864,15.8844535 6.84089324,15.7501709 7.16047562,15.9033488 L12.0621664,18.2539231 C12.3813709,18.4072269 12.5156535,18.7889119 12.3620977,19.1076125 C12.3295978,19.173872 12.2873983,19.2328253 12.2376407,19.2818271" id="Fill-13066" fill="#7A8484"></path>
                <polyline id="Fill-13067" fill="#616768" points="8.98024123 17.9206168 8.64 17.7577394 9.60164442 16.8 9.94163372 16.9628774 8.98024123 17.9206168"></polyline>
                <path d="M15.1320632,3.36 C14.9926159,3.36 14.88,3.47299385 14.88,3.61193723 L14.88,6.07588338 C14.88,6.21457483 14.9926159,6.32794658 15.1320632,6.32794658 C15.2708806,6.32794658 15.3840004,6.21457483 15.3840004,6.07588338 L15.3840004,3.61193723 C15.3840004,3.47299385 15.2708806,3.36 15.1320632,3.36" id="Fill-13068" fill="#98BA6C"></path>
                <path d="M20.4755055,8.64 L18.0119372,8.64 C17.8729938,8.64 17.76,8.75299385 17.76,8.89193723 C17.76,9.03125852 17.8729938,9.14387447 18.0119372,9.14387447 L20.4755055,9.14387447 C20.6144489,9.14387447 20.7273167,9.03125852 20.7273167,8.89193723 C20.7273167,8.75299385 20.6144489,8.64 20.4755055,8.64" id="Fill-13069" fill="#98BA6C"></path>
                <path d="M19.8832428,6.36609342 C19.8139601,6.24554145 19.6599005,6.20397181 19.5392225,6.27413633 L17.4061959,7.50560553 C17.2852661,7.57539214 17.2442003,7.72907385 17.3139869,7.85000372 C17.3605953,7.93062364 17.4453722,7.97597234 17.5321645,7.97597234 C17.5751198,7.97597234 17.6183271,7.96501307 17.6582591,7.94196081 L19.7912857,6.70998774 C19.9117117,6.640705 19.9530294,6.48651942 19.8832428,6.36609342" id="Fill-13070" fill="#98BA6C"></path>
                <path d="M17.9292759,3.87387233 C17.8088499,3.80408572 17.6546643,3.84565536 17.5853816,3.96620733 L16.3539124,6.09935988 C16.2842518,6.22016379 16.3253175,6.3738455 16.4458695,6.44350614 C16.4856756,6.4665584 16.5290088,6.47726573 16.5718381,6.47726573 C16.6587565,6.47726573 16.7435333,6.43216897 16.7901417,6.35117115 L18.0217369,4.21814456 C18.0910196,4.09759259 18.0498279,3.94340701 17.9292759,3.87387233" id="Fill-13071" fill="#98BA6C"></path>
                <path d="M18.6938141,11.6368541 C18.8079416,11.7504778 18.8663911,11.9152447 18.8366625,12.0853023 C18.8071858,12.25536 18.6968373,12.39191 18.5509657,12.4603109 C15.8301695,12.957509 12.328242,14.6134925 10.2216688,16.3984678 L7.68,13.8670025 C9.47240745,11.7691211 11.1353192,8.28167996 11.6341549,5.57196904 C11.7033117,5.42710513 11.8398616,5.31700856 12.010801,5.28740594 C12.1816145,5.25843316 12.3475152,5.31625275 12.4613908,5.42962451 L18.6938141,11.6368541" id="Fill-13072" fill="#FFFFFF"></path>
                <path d="M18.8414815,12.0926347 L18.8414815,12.0922568 C18.8414815,12.0922568 18.8414815,12.0922568 18.8414815,12.0926347 L18.8414815,12.0926347 Z M18.8417335,12.0888557 C18.8422374,12.0888557 18.8422374,12.0884778 18.8422374,12.0884778 C18.8422374,12.0884778 18.8422374,12.0888557 18.8417335,12.0888557 L18.8417335,12.0888557 Z M18.8427412,12.0855805 C18.8427412,12.0850766 18.8431191,12.0846987 18.8431191,12.0843208 C18.8431191,12.0846987 18.8427412,12.0850766 18.8427412,12.0855805 L18.8427412,12.0855805 Z M18.8433711,12.0816755 C18.8433711,12.0804158 18.8440009,12.079408 18.8440009,12.0778964 C18.8440009,12.079408 18.8433711,12.0804158 18.8433711,12.0816755 L18.8433711,12.0816755 Z M12,5.28365309 C12,5.28365309 12,5.28365309 12.0005039,5.28314922 L12,5.28365309 L12,5.28365309 Z M12.0034012,5.28277131 C12.003905,5.28277131 12.003905,5.28277131 12.0042829,5.2823934 C12.003905,5.28277131 12.003905,5.28277131 12.0034012,5.28277131 L12.0034012,5.28277131 Z M12.0070542,5.2820155 L12.008062,5.2820155 L12.0070542,5.2820155 L12.0070542,5.2820155 Z M12.0105814,5.28113372 L12.012219,5.28113372 L12.0105814,5.28113372 L12.0105814,5.28113372 Z M12.0143604,5.28062984 C12.0156201,5.28025194 12.0168798,5.28025194 12.0181395,5.28 C12.0168798,5.28025194 12.0156201,5.28025194 12.0143604,5.28062984 L12.0143604,5.28062984 Z" id="Fill-13073" fill="#6B6B68"></path>
                <path d="M15.4121119,8.58831378 L12.2956483,5.48482497 C12.2171699,5.40634652 12.1133718,5.35432148 12,5.33958316 C12.0471123,5.31476734 12.0982555,5.29713173 12.1529259,5.28755812 C12.1822766,5.28251937 12.2117532,5.28 12.240726,5.28 C12.3796694,5.28 12.5092911,5.336182 12.6035156,5.42990265 L15.5935067,8.40792672 L15.4121119,8.58831378" id="Fill-13074" fill="#FFFFFF"></path>
                <path d="M10.0757512,16.4514653 L7.89687205,18.6211488 C7.85064156,18.6672533 7.78639757,18.6962261 7.71547724,18.6962261 C7.64455691,18.6962261 7.58069082,18.6672533 7.53408243,18.6211488 L5.35520326,16.4514653 C5.30909875,16.4053608 5.28,16.3414947 5.28,16.2707004 C5.28,16.200032 5.30909875,16.1361659 5.35520326,16.0900614 L7.53408243,13.92 L10.0757512,16.4514653" id="Fill-13075" fill="#5182A9"></path>
                <path d="M7.49207531,18.4896835 L7.12890779,18.8512134 C7.03606892,18.9439263 6.90758093,19.001116 6.7656143,19.001116 C6.62377363,19.001116 6.49566355,18.9439263 6.40282468,18.8512134 L4.95040653,17.4050937 C4.85718975,17.3127587 4.8,17.1846486 4.8,17.0435637 C4.8,16.901975 4.85718975,16.7743688 4.95040653,16.6815299 L5.31319614,16.32 L7.49207531,18.4896835" id="Fill-13076" fill="#3D6689"></path>
                <path d="M6.60316752,18.8760224 C6.46132686,18.8760224 6.33321678,18.8188326 6.24037791,18.7261197 C6.33321678,18.8188326 6.46132686,18.8760224 6.60316752,18.8760224 C6.74513415,18.8760224 6.87362214,18.8188326 6.96646101,18.7261197 L7.32962854,18.3645898 L6.24,17.28 L7.32962854,18.3645898 C7.37623692,18.4106943 7.44010301,18.4396671 7.51102334,18.4396671 L7.51127528,18.4396671 C7.51127528,18.4396671 7.51127528,18.4396671 7.51102334,18.4396671 C7.44010301,18.4396671 7.37623692,18.4106943 7.32962854,18.3645898 L6.96646101,18.7261197 C6.87362214,18.8188326 6.74513415,18.8760224 6.60316752,18.8760224 L6.60316752,18.8760224 Z M7.51316481,18.4396671 C7.58320336,18.4390372 7.64669154,18.4103164 7.69241815,18.3645898 L8.38726104,17.6730221 L7.69241815,18.3645898 C7.64669154,18.4103164 7.58320336,18.4390372 7.51316481,18.4396671 L7.51316481,18.4396671 Z" id="Fill-13077" fill="#232422"></path>
                <path d="M9.91064544,16.3244635 L8.64,15.0589828 L15.0849323,8.64 L18.2013959,11.7434888 C18.3151456,11.8572385 18.373595,12.0222574 18.3442443,12.192315 C18.3332851,12.2549214 18.3114925,12.3124891 18.28126,12.3641362 C18.4021899,12.292712 18.4932652,12.1730418 18.5231198,12.0260364 C18.4898641,12.1894177 18.381531,12.3195433 18.2399423,12.3863067 C15.5191462,12.8835048 12.0172186,14.5394882 9.91064544,16.3244635 L9.91064544,16.3244635 Z M18.5231198,12.0256585 C18.5233717,12.0243988 18.5233717,12.023643 18.5233717,12.0222574 C18.5233717,12.023643 18.5233717,12.0243988 18.5231198,12.0256585 L18.5231198,12.0256585 Z M18.5238756,12.0218795 C18.5238756,12.0206198 18.5243795,12.019738 18.5243795,12.0189822 C18.5243795,12.019738 18.5238756,12.0206198 18.5238756,12.0218795 L18.5238756,12.0218795 Z M18.5247574,12.0177225 C18.5247574,12.0168407 18.5247574,12.0159589 18.5250093,12.0150772 C18.5247574,12.0159589 18.5247574,12.0168407 18.5247574,12.0177225 L18.5247574,12.0177225 Z" id="Fill-13078" fill="#C8C7C2"></path>
                <path d="M18.5563277,12.5445232 C18.5865602,12.4928761 18.6083527,12.4353085 18.619312,12.3727021 C18.6486627,12.2026444 18.5902132,12.0376255 18.4764636,11.9238759 L15.36,8.82038706 L15.5413948,8.64 L18.6621413,11.7478977 L18.6578584,11.7432369 C18.7523349,11.8369575 18.8086428,11.9667052 18.8086428,12.1048928 C18.8082649,12.1333617 18.8059975,12.1627124 18.8007068,12.1916852 C18.8007068,12.1931968 18.800077,12.1942045 18.800077,12.1954642 C18.799825,12.196346 18.799825,12.1972278 18.799825,12.1981096 C18.799825,12.1984875 18.7994471,12.1988654 18.7994471,12.1993692 C18.7994471,12.200125 18.7989432,12.2010068 18.7989432,12.2022665 C18.7989432,12.2022665 18.7989432,12.2026444 18.7984394,12.2026444 C18.7984394,12.2040301 18.7984394,12.2047859 18.7981874,12.2060456 C18.7981874,12.2060456 18.7981874,12.2060456 18.7981874,12.2064235 C18.7683329,12.3534289 18.6772576,12.473099 18.5563277,12.5445232" id="Fill-13079" fill="#C8C7C2"></path>
                <path d="M7.51127528,18.5087115 C7.51127528,18.5087115 7.51127528,18.5087115 7.51102334,18.5087115 C7.44010301,18.5087115 7.37623692,18.4797388 7.32962854,18.4336343 L6.24,17.3490445 L8.23748436,15.36 L9.5085077,16.6254807 L9.87129732,16.2639508 L8.38726104,17.7420665 L7.69241815,18.4336343 C7.64669154,18.4793609 7.58320336,18.5080817 7.51316481,18.5087115 L7.51127528,18.5087115" id="Fill-13080" fill="#436787"></path>
                <path d="M6.84912466,18.8760224 C6.707284,18.8760224 6.57917392,18.8188326 6.48633504,18.7261197 L5.76,18.0030599 L6.48595714,17.28 L7.57558567,18.3645898 L7.21241815,18.7261197 C7.11957928,18.8188326 6.99109129,18.8760224 6.84912466,18.8760224" id="Fill-13081" fill="#30506A"></path>
                <polyline id="Fill-13082" fill="#436787" points="8.34467682 15.4215459 7.2 14.2816559 7.56278962 13.92 8.70784434 15.060016 8.34467682 15.4215459"></polyline>
                <polyline id="Fill-13083" fill="#345168" points="9.91102334 16.5070107 8.64 15.2415299 9.00316752 14.88 10.273813 16.1454807 9.91102334 16.5070107"></polyline>
                <path id="Fill-13084" fill="#545553"></path>
                <path d="M5.47197617,16.6863304 L5.35520326,16.5699354 C5.30909875,16.5238309 5.28,16.4599648 5.28,16.3891704 C5.28,16.318502 5.30909875,16.2546359 5.35520326,16.2085314 L7.17091491,14.4 L7.29726143,14.5260946 L7.29688352,14.5260946 L5.48117188,16.3345 C5.43506737,16.3806046 5.40596862,16.4448486 5.40596862,16.5150131 C5.40596862,16.5808947 5.43128831,16.6411077 5.47197617,16.6863304" id="Fill-13085" fill="#7199B8"></path>
                <path d="M5.07297399,17.5272832 L4.95040653,17.4050937 C4.85718975,17.3127587 4.8,17.1846486 4.8,17.0435637 C4.8,16.901975 4.85718975,16.7743688 4.95040653,16.6815299 L5.31319614,16.32 L5.42996905,16.436395 C5.43286633,16.4396702 5.43626748,16.4428194 5.43916476,16.4459686 L5.07637515,16.8074985 C4.98315837,16.9004634 4.92609459,17.0279436 4.92609459,17.1695324 C4.92609459,17.3089796 4.98240256,17.4354521 5.07297399,17.5272832" id="Fill-13086" fill="#60829C"></path>
                <path d="M7.80596862,13.9849353 L7.68,13.8589667 C9.47240745,11.7610853 11.1353192,8.27364418 11.6341549,5.56393326 C11.7009182,5.4241081 11.830162,5.3165309 11.9926616,5.28302325 C11.8466639,5.31338168 11.7277496,5.40344924 11.6568292,5.5232454 C11.7084764,5.49301293 11.766296,5.47109439 11.8294062,5.46026109 C11.8587569,5.45522235 11.8882336,5.45257701 11.9175843,5.45257701 C11.9398807,5.45257701 11.9620512,5.45434057 11.9838438,5.45723784 C11.8852103,5.50888498 11.8071098,5.59164636 11.7601235,5.68990188 C11.2612878,8.39948683 9.59850203,11.886802 7.80596862,13.9849353 L7.80596862,13.9849353 Z M11.9931654,5.28251937 C11.9940472,5.28251937 11.9951809,5.28214147 11.9960627,5.28214147 C11.9951809,5.28214147 11.9940472,5.28251937 11.9931654,5.28251937 L11.9931654,5.28251937 Z M11.9969445,5.28176356 C11.9978263,5.28176356 11.9985821,5.28176356 11.9997158,5.28138565 C11.9985821,5.28176356 11.9978263,5.28176356 11.9969445,5.28176356 L11.9969445,5.28176356 Z M12.0007236,5.28138565 C12.0016053,5.28100775 12.0023611,5.28100775 12.0032429,5.28050387 C12.0023611,5.28100775 12.0016053,5.28100775 12.0007236,5.28138565 L12.0007236,5.28138565 Z M12.0048805,5.28050387 C12.0056363,5.28050387 12.0060142,5.28 12.007022,5.28 C12.0060142,5.28 12.0056363,5.28050387 12.0048805,5.28050387 L12.0048805,5.28050387 Z" id="Fill-13087" fill="#FFFFFF"></path>
                <path id="Fill-13088" fill="#858783"></path>
                <path d="M18.5569848,11.6371322 L12.4505302,5.55587127 C12.3563056,5.46215062 12.2266839,5.40596862 12.0877406,5.40596862 C12.0587678,5.40596862 12.0292911,5.40848799 11.9999404,5.41352673 C11.9452701,5.42310035 11.8941268,5.44073596 11.8470145,5.46555177 C11.825222,5.46265449 11.8030515,5.46089093 11.780755,5.46089093 C11.7514043,5.46089093 11.7219277,5.46353627 11.692577,5.46857502 C11.6294667,5.47940832 11.5716471,5.50132686 11.52,5.53155933 C11.5909203,5.41176317 11.7098347,5.32169561 11.8558323,5.29133718 C11.8558323,5.29133718 11.8558323,5.29133718 11.8563362,5.2908333 C11.857218,5.2908333 11.8583517,5.2904554 11.8592335,5.2904554 C11.8597374,5.2904554 11.8597374,5.2904554 11.8601153,5.29007749 C11.860997,5.29007749 11.8617529,5.29007749 11.8628866,5.28969958 L11.8638943,5.28969958 C11.8647761,5.28932168 11.8655319,5.28932168 11.8664137,5.2888178 L11.8680513,5.2888178 C11.8688071,5.2888178 11.869185,5.28831393 11.8701928,5.28831393 C11.8714524,5.28793602 11.8727121,5.28793602 11.8739718,5.28768409 C11.877373,5.28705424 11.8806481,5.28667634 11.8839233,5.28629843 C11.9096209,5.2820155 11.9356964,5.28 11.9612681,5.28 L11.9630316,5.28 C12.1010932,5.28037791 12.230337,5.33681185 12.3245616,5.42990265 L18.5569848,11.6371322" id="Fill-13089" fill="#FFFFFF"></path>
                <polyline id="Fill-13090" fill="#D3D2CD" points="18.4807465 11.7478977 15.36 8.64 18.4764636 11.7432369 18.4807465 11.7478977"></polyline>
                <polyline id="Fill-13091" fill="#4C4D4A" points="7.2 14.42 7.7 13.92 7.2 14.42"></polyline>
                <polyline id="Fill-13092" fill="#64849B" points="7.32915272 14.42 7.2 14.2907052 7.57123358 13.92 7.7 14.0491656 7.32915272 14.42"></polyline>
            </g>
        </g>
    </g>
</svg>
