<?xml version="1.0" encoding="UTF-8" standalone="no"?>
<svg width="8px" height="13px" viewBox="0 0 8 13" version="1.1" xmlns="http://www.w3.org/2000/svg" xmlns:xlink="http://www.w3.org/1999/xlink">
    <!-- Generator: Sketch 3.8.3 (29802) - http://www.bohemiancoding.com/sketch -->
    <title>Shape</title>
    <desc>Created with Sketch.</desc>
    <defs></defs>
    <g id="Week-4" stroke="none" stroke-width="1" fill="none" fill-rule="evenodd">
        <g id="Local-Settings---Trackers-&amp;-Blocking" transform="translate(-668.000000, -100.000000)" fill="#FFFFFF">
            <path d="M670.979238,106.216699 L675.875528,101.320561 C675.95856,101.237529 676,101.141958 676,101.034001 C676,100.926044 675.95856,100.830473 675.875528,100.747594 L675.252559,100.124625 C675.169527,100.041592 675.073956,100 674.966152,100 C674.858195,100 674.762624,100.041592 674.679592,100.124625 L668.873924,105.930139 C668.790892,106.013171 668.749453,106.108742 668.749453,106.216699 C668.749453,106.324656 668.790892,106.420227 668.873924,106.503259 L674.679439,112.308773 C674.762471,112.391958 674.858042,112.433398 674.965999,112.433398 C675.073803,112.433398 675.169374,112.391958 675.252406,112.308773 L675.875375,111.68611 C675.958408,111.603078 675.999847,111.507507 675.999847,111.399397 C675.999847,111.291593 675.958408,111.196022 675.875375,111.11299 L670.979238,106.216699 L670.979238,106.216699 Z" id="Shape"></path>
        </g>
    </g>
</svg>