<?xml version="1.0" encoding="UTF-8" standalone="no"?>
<svg width="26px" height="15px" viewBox="0 0 26 15" version="1.1" xmlns="http://www.w3.org/2000/svg" xmlns:xlink="http://www.w3.org/1999/xlink">
    <!-- Generator: Sketch 39 (31667) - http://www.bohemiancoding.com/sketch -->
    <title>Click to Play</title>
    <desc>Created with Sketch.</desc>
    <defs></defs>
    <g id="6.4-Mocks" stroke="none" stroke-width="1" fill="none" fill-rule="evenodd">
        <g id="Local-Settings-Tips---Highlight-Required-Trackers" transform="translate(-990.000000, -262.000000)">
            <g id="Path-+-These-technologies-c" transform="translate(921.000000, 177.000000)">
                <g id="Click-to-Play" transform="translate(69.000000, 85.000000)">
                    <path d="M10.909821,10.4633423 C10.3777102,9.26178756 10.2860709,8.24367849 10.2717904,7.84366108 L10.2717904,4.55237131 C10.2717904,2.03807835 8.18582982,0 5.61282462,0 C3.03953238,0 0.953500086,2.03807835 0.953500086,4.55237131 L0.953500086,7.89123961 C0.933622177,8.32159281 0.829065809,9.30857908 0.317478749,10.4633423 C-0.370139039,12.0150464 0.198928907,11.8300983 0.70865017,11.702459 C1.21829967,11.5753206 2.35650733,11.0769265 2.71208509,11.6908684 C3.06751933,12.3045242 3.36403746,12.8374753 4.19381459,12.4899732 C5.02366348,12.1426141 5.41469138,12.0268516 5.53316946,12.0268516 L5.69434558,12.0268516 C5.81268014,12.0268516 6.20385156,12.1426141 7.03362869,12.4899732 C7.86340582,12.8374753 8.15978043,12.3045242 8.51542995,11.6908684 C8.8708642,11.0769265 10.0090001,11.5753206 10.5187931,11.702459 C11.0285144,11.8300983 11.5972953,12.0150464 10.909821,10.4633423" id="Path-Copy-22" fill="#00AEF0"></path>
                    <path d="M4.43185318,2.4 C4.92135691,2.4 5.31818182,3.07141039 5.31818182,3.89992363 C5.31818182,4.72836049 4.92135691,5.4 4.43185318,5.4 C3.94234946,5.4 3.54545455,4.72836049 3.54545455,3.89992363 C3.54545455,3.07141039 3.94234946,2.4 4.43185318,2.4" id="Path-Copy-23" fill="#FFFFFF"></path>
                    <path d="M5.90912751,7.8 C4.78112898,7.8 3.83158993,6.6640107 3.54545455,5.4 C4.09810794,6.17745295 4.95109735,6.67708035 5.90912751,6.67708035 C6.86708446,6.67708035 7.72000068,6.17745295 8.27272727,5.4 C7.98659189,6.6640107 7.03690644,7.8 5.90912751,7.8" id="Path-Copy-24" fill="#FFFFFF"></path>
                    <path d="M6.79555954,5.4 C6.3057445,5.4 5.90909091,4.72836049 5.90909091,3.89992363 C5.90909091,3.07141039 6.3057445,2.4 6.79555954,2.4 C7.28530458,2.4 7.68181818,3.07141039 7.68181818,3.89992363 C7.68181818,4.72836049 7.28530458,5.4 6.79555954,5.4" id="Path-Copy-25" fill="#FFFFFF"></path>
                    <path d="M13.9002602,9.99830824 C13.712536,9.55449462 13.4608961,9.17210036 13.145397,8.85129749 C12.830068,8.53049462 12.4529197,8.27501075 12.0143488,8.08501792 C11.5758912,7.89502509 11.1164684,7.8 10.6364203,7.8 C10.1563155,7.8 9.69694936,7.89508244 9.25837848,8.08501792 C8.81980761,8.27501075 8.44277265,8.53043728 8.12733026,8.85129749 C7.81188788,9.17210036 7.56024792,9.55449462 7.37252372,9.99830824 C7.18479952,10.4421792 7.09090909,10.9086452 7.09090909,11.3976487 C7.09090909,11.8866523 7.18479952,12.3538638 7.37252372,12.7992832 C7.56030458,13.2447599 7.81188788,13.6277849 8.12733026,13.9487025 C8.44277265,14.2695054 8.81980761,14.5249892 9.25837848,14.7148674 C9.69694936,14.9049176 10.1563155,15 10.6364203,15 C11.1165251,15 11.5758912,14.9049176 12.0143488,14.7148674 C12.4529197,14.5249319 12.830068,14.2695054 13.145397,13.9487025 C13.4608961,13.6277849 13.712536,13.2447599 13.9002602,12.7992832 C14.0879844,12.3538638 14.1818182,11.8866523 14.1818182,11.3976487 C14.1817615,10.9086452 14.0879844,10.4421792 13.9002602,9.99830824 L13.9002602,9.99830824 Z M8.5358698,12.7945806 C8.26196132,12.3679713 8.12500708,11.9021935 8.12506375,11.3975914 C8.12506375,10.9366308 8.23742628,10.5099068 8.4620947,10.1174194 C8.68670645,9.7249319 8.99143954,9.41502509 9.376124,9.18758423 C9.76080845,8.96020072 10.1809072,8.84653763 10.6364203,8.84653763 C11.1442899,8.84653763 11.6058093,8.98830108 12.021375,9.27171326 L8.5358698,12.7945806 L8.5358698,12.7945806 Z M12.9491167,12.3905663 C12.8167522,12.706724 12.6383773,12.9784946 12.4136523,13.2058781 C12.1889272,13.4332616 11.9219883,13.6147097 11.6126655,13.7501075 C11.3033427,13.8856201 10.977871,13.953405 10.636307,13.953405 C10.1439063,13.953405 9.68686336,13.814853 9.26523469,13.5375197 L12.7460935,10.0192975 C13.0139391,10.4366738 13.1477202,10.8961434 13.1477202,11.3975914 C13.1476635,11.7433978 13.0814813,12.0743513 12.9491167,12.3905663 L12.9491167,12.3905663 Z" id="Shape" fill="#E74055"></path>
                    <path d="M20.6238263,6.21611348 L17.2774618,4.21986401 C17.2388315,4.19642442 17.2056446,4.19373517 17.1779322,4.21176307 C17.1502198,4.22979097 17.1363636,4.26226111 17.1363636,4.30914028 L17.1363636,8.29081586 C17.1363636,8.33772824 17.1502198,8.37019838 17.1779322,8.38822628 C17.2056446,8.40625418 17.2388315,8.40359813 17.2774618,8.38012534 L20.6238263,6.38387586 C20.6624875,6.36040308 20.6818182,6.33238181 20.6818182,6.29997807 C20.6818182,6.26750794 20.6624875,6.23955307 20.6238263,6.21611348 L20.6238263,6.21611348 Z" id="Shape" fill="#00AEF0"></path>
                    <path d="M25.9420081,6.21611348 L22.5956436,4.21986401 C22.5570133,4.19642442 22.5238264,4.19373517 22.496114,4.21176307 C22.4684017,4.22979097 22.4545455,4.26226111 22.4545455,4.30914028 L22.4545455,8.29081586 C22.4545455,8.33772824 22.4684017,8.37019838 22.496114,8.38822628 C22.5238264,8.40625418 22.5570133,8.40359813 22.5956436,8.38012534 L25.9420081,6.38387586 C25.9806694,6.36040308 26,6.33238181 26,6.29997807 C26,6.26750794 25.9806694,6.23955307 25.9420081,6.21611348 L25.9420081,6.21611348 Z" id="Shape" fill="#00AEF0"></path>
                </g>
            </g>
        </g>
    </g>
</svg>