<?xml version="1.0" encoding="UTF-8" standalone="no"?>
<svg width="26px" height="26px" viewBox="0 0 26 26" version="1.1" xmlns="http://www.w3.org/2000/svg" xmlns:xlink="http://www.w3.org/1999/xlink">
    <!-- Generator: Sketch 3.8.3 (29802) - http://www.bohemiancoding.com/sketch -->
    <title>Comments</title>
    <desc>Created with Sketch.</desc>
    <defs></defs>
    <g id="Week-4" stroke="none" stroke-width="1" fill="none" fill-rule="evenodd">
        <g id="Tracker-List-View" transform="translate(-1863.000000, -1134.000000)">
            <g id="Comments" transform="translate(1864.000000, 1135.000000)">
                <ellipse id="Oval-375-Copy-14" stroke="#2093BF" fill="#43B7C5" cx="11.8651685" cy="11.8651685" rx="11.8651685" ry="11.8651685"></ellipse>
                <path d="M16.9862974,7.68 L6.95232819,7.68 C6.03254769,7.68 5.28,8.44623987 5.28,9.36445257 L5.28,15.2110165 C5.28,16.1294382 6.03254769,16.8779096 6.95232819,16.8779096 L7.78849229,16.8779096 L7.78849229,20.2224615 L11.157502,16.8779096 L16.9862974,16.8779096 C17.9057643,16.8779096 18.6586256,16.1294382 18.6586256,15.2110165 L18.6586256,9.34020381 C18.6586256,8.41195715 17.9057643,7.68 16.9862974,7.68" id="Fill-3207" fill="#FFFDF6"></path>
                <polygon id="Fill-3208" fill="#2D2E2B" points="7.2 13.94 12.2169846 13.94 12.2169846 13.44 7.2 13.44"></polygon>
                <polygon id="Fill-3209" fill="#2D2E2B" points="7.2 12.98 16.3978051 12.98 16.3978051 12.48 7.2 12.48"></polygon>
                <polygon id="Fill-3210" fill="#2D2E2B" points="7.2 11.54 16.3978051 11.54 16.3978051 11.04 7.2 11.04"></polygon>
                <polygon id="Fill-3211" fill="#2D2E2B" points="7.2 10.1 16.3978051 10.1 16.3978051 9.6 7.2 9.6"></polygon>
                <path d="M17.0169846,16.6688686 L12,16.6688686 L12,13.9512307 L12.418082,13.9512307 L12.418082,13.5332532 L12,13.5332532 L12,12.6969846 L16.5989025,12.6969846 L16.5989025,12.2790071 L12,12.2790071 L12,11.4427384 L16.5989025,11.4427384 L16.5989025,11.0247609 L12,11.0247609 L12,10.1884923 L16.5989025,10.1884923 L16.5989025,9.77051476 L12,9.77051476 L12,7.68 L17.0169846,7.68 C17.9364515,7.68 18.6893128,8.41195715 18.6893128,9.34009929 L18.6893128,15.0019754 C18.6893128,15.5433917 18.4276979,16.0255448 18.0245623,16.3304311 C17.9887118,16.3576065 17.951398,16.3837366 17.9130389,16.4080899 C17.6535145,16.5733368 17.3459106,16.6688686 17.0169846,16.6688686" id="Fill-3416" fill="#E4E4E0"></path>
                <polygon id="Fill-3417" fill="#282927" points="12 13.44 12.5 13.44 12.5 13.94 12 13.94"></polygon>
                <polygon id="Fill-3418" fill="#282927" points="12 12.48 16.5989025 12.48 16.5989025 12.98 12 12.98"></polygon>
                <polygon id="Fill-3419" fill="#282927" points="12 11.04 16.5989025 11.04 16.5989025 11.54 12 11.54"></polygon>
                <polygon id="Fill-3420" fill="#282927" points="12 9.6 16.5989025 9.6 16.5989025 10.1 12 10.1"></polygon>
                <path d="M5.28,9.5734936 L5.28,9.36445257 C5.28,8.44623987 6.03254769,7.68 6.95232819,7.68 L11.9693128,7.68 L11.9693128,7.88904102 L6.95232819,7.88904102 C6.03254769,7.88904102 5.28,8.65517638 5.28,9.5734936" id="Fill-3421" fill="#E8E8E8"></path>
                <path d="M18.6893128,9.54914032 C18.6893128,8.62099817 17.9364515,7.88904102 17.0169846,7.88904102 L12,7.88904102 L12,7.68 L17.0169846,7.68 C17.9364515,7.68 18.6893128,8.41195715 18.6893128,9.34020381 L18.6893128,9.54914032" id="Fill-3422" fill="#C2C2C2"></path>
            </g>
        </g>
    </g>
</svg>