<?xml version="1.0" encoding="UTF-8" standalone="no"?>
<svg width="26px" height="26px" viewBox="0 0 26 26" version="1.1" xmlns="http://www.w3.org/2000/svg" xmlns:xlink="http://www.w3.org/1999/xlink">
    <!-- Generator: Sketch 3.8.3 (29802) - http://www.bohemiancoding.com/sketch -->
    <title>Customer Interaction</title>
    <desc>Created with Sketch.</desc>
    <defs></defs>
    <g id="Week-4" stroke="none" stroke-width="1" fill="none" fill-rule="evenodd">
        <g id="Tracker-List-View" transform="translate(-1863.000000, -1171.000000)">
            <g id="Customer-Interaction" transform="translate(1864.000000, 1172.000000)">
                <circle id="Oval-375-Copy-3" stroke="#EBB046" fill="#FDC257" cx="11.8651685" cy="11.8651685" r="11.8651685"></circle>
                <path d="M15.5278652,6.87393258 C16.5414505,7.88721144 17.1519714,9.23797753 17.2472727,10.6767926 L17.260858,10.8821042 L18.0817978,10.8228601 L18.0682125,10.62 C17.9599387,8.98567926 17.2639224,7.44900919 16.1086619,6.29313585 C14.9534014,5.13787538 13.4168335,4.44226762 11.7817978,4.33368744 L11.5789377,4.32 L11.52,5.14093973 L11.7250051,5.15462717 C13.1638202,5.24982635 14.5141777,5.86034729 15.5278652,6.87393258" id="Fill-7214" fill="#EBB34D"></path>
                <path d="M14.6101941,7.89789581 C15.3786313,8.66704801 15.8417569,9.69186925 15.9142799,10.7835955 L15.9278652,10.9884985 L16.7480899,10.9292543 L16.734811,10.7265986 C16.6493156,9.43824311 16.1007967,8.22751788 15.1903779,7.31740552 C14.280572,6.40688458 13.0698468,5.8588764 11.7817978,5.77327886 L11.5788355,5.76 L11.52,6.58022472 L11.724903,6.59381001 C12.8162206,6.66602656 13.8410419,7.12945863 14.6101941,7.89789581" id="Fill-7215" fill="#EBB34D"></path>
                <path d="M13.6923187,8.92032686 C14.2149949,9.44300306 14.5299081,10.1416752 14.5792441,10.887334 L14.5929316,11.092237 L15.4121348,11.0337079 L15.398856,10.8307457 C15.3365475,9.88804903 14.9367518,9.00347293 14.272809,8.33953013 C13.6095812,7.6762002 12.7246987,7.2762002 11.7818999,7.21348315 L11.5789377,7.2 L11.52,8.01981614 L11.7250051,8.03309499 C12.4706639,8.08212462 13.1693361,8.39744637 13.6923187,8.92032686" id="Fill-7216" fill="#EBB34D"></path>
                <path d="M15.298449,12.7610215 C15.2095828,12.7610215 15.1248024,12.7715424 15.0468658,12.7922778 C14.8721977,12.8382431 14.7165287,12.9359959 14.6102978,13.0660266 L14.3202059,13.4119918 L13.9610639,13.8134219 C13.8431885,13.9202656 13.7312376,13.9880899 13.6280711,14.0153626 C13.5908903,14.0251685 13.5530966,14.0302758 13.5142815,14.0302758 C13.3471722,14.0302758 13.1567738,13.9387538 12.9327697,13.7508069 L9.57832644,10.934668 C9.10059406,10.533953 9.13225902,10.2396731 9.33082899,9.92302349 L9.61714156,9.55427988 L9.96034891,9.14610827 C10.0679076,9.01771195 10.289256,8.6588764 10.0229638,8.10279877 C9.63215688,7.28359551 7.89426107,5.76 6.93859202,5.76 C6.85279018,5.76 6.76933767,5.77052094 6.68997097,5.79125638 C6.52051234,5.8362002 6.37270846,5.92884576 6.26239181,6.05969356 L5.89936832,6.49268641 L5.77035912,6.64825332 L5.77270846,6.65029622 L5.77107414,6.6527477 L5.76494544,6.64764045 L5.63552766,6.81720123 L5.61949089,6.83967314 L5.48976668,7.00106231 L5.49895974,7.00923391 C4.23236117,8.87848825 4.71346433,11.2355873 6.72878609,12.9282329 L11.2205123,16.6969765 C12.2344041,17.5486619 13.4087657,18.0174055 14.5275604,18.0174055 C14.8656605,18.0174055 15.2006962,17.9744025 15.5249046,17.8893156 C16.1738321,17.7181205 16.7608596,17.3796118 17.2718913,16.8824719 L17.2817994,16.8907457 L17.424496,16.7277222 L17.4414521,16.7102554 L17.5888474,16.5488662 L17.5878259,16.5481512 L18.0798586,15.9622472 C18.1901753,15.8315015 18.4172437,15.4658223 18.1472743,14.901573 C17.7720956,14.1154648 16.2228617,12.7610215 15.298449,12.7610215" id="Fill-7217" fill="#EBB34D"></path>
                <polyline id="Fill-7218" fill="#96CBC8" points="5.76 7.11499489 6.07971399 6.72 9.45213483 9.55789581 9.15121553 9.9447191 5.76 7.11499489"></polyline>
                <polyline id="Fill-7219" fill="#96CBC8" points="14.2952809 13.44 13.92 13.8592033 17.0813892 16.4982227 17.414382 16.1179367 14.2952809 13.44"></polyline>
                <path d="M17.7122574,10.9262513 L18.1259448,10.8963228 C18.0245148,9.36618999 17.3919305,7.86741573 16.2254341,6.70051073 C15.0585291,5.53340143 13.5597549,4.90173647 12.0296221,4.8 L12,5.21368744 C13.4354443,5.30868233 14.8413687,5.90010215 15.9336057,6.99244127 C17.0262513,8.0845761 17.6172625,9.49050051 17.7122574,10.9262513" id="Fill-7220" fill="#8FC78A"></path>
                <path d="M15.899571,11.0326456 L16.312237,11.0030235 C16.2329724,9.80721144 15.7392033,8.63632278 14.8274566,7.72447395 C13.9159142,6.81303371 12.7450255,6.31926456 11.5496221,6.24 L11.52,6.65266599 C12.6204086,6.7254954 13.6983453,7.17901941 14.5359346,8.01630235 C15.3732176,8.85389173 15.8264351,9.9318284 15.899571,11.0326456" id="Fill-7221" fill="#8FC78A"></path>
                <path d="M14.5646374,11.1365884 L14.9762819,11.1072727 C14.9193871,10.2464964 14.5659653,9.40318693 13.9098876,8.74700715 C13.2534014,8.09062308 12.4100919,7.73750766 11.5496221,7.68 L11.52,8.09195097 C12.285475,8.14271706 13.035526,8.45640449 13.6180592,9.03883555 C14.2006946,9.62136874 14.5138713,10.3716241 14.5646374,11.1365884" id="Fill-7222" fill="#8FC78A"></path>
                <path d="M14.7570991,13.1921757 L14.4,13.6178141 L17.5507661,16.2579571 L17.914096,15.8251685 C18.0193054,15.7005516 18.1643514,15.4250664 17.9532176,14.9841062 C17.6073544,14.25857 16.1313585,12.96 15.2889683,12.96 C15.2181818,12.96 15.1503575,12.9685802 15.0890705,12.9849234 C14.954954,13.019857 14.8385087,13.0928907 14.7570991,13.1921757" id="Fill-7223" fill="#50B4D1"></path>
                <path d="M17.0953546,16.3502349 L13.9418306,13.708049 C13.787898,13.8571808 13.6346804,13.9521757 13.4845272,13.9917058 C13.4300839,14.0063126 13.3742106,14.0134627 13.3180308,14.0134627 C13.0988275,14.0134627 12.8649154,13.9038611 12.6050584,13.6860878 L9.25061506,10.8701532 C8.7457121,10.4465577 8.66062528,10.0437998 8.98503794,9.55483146 L5.60168759,6.72 C4.22987962,8.53511747 4.64080914,10.8517671 6.66399607,12.5504392 L11.1556202,16.3196936 C12.1331483,17.140429 13.2608296,17.5920123 14.3313097,17.5920123 C14.654088,17.5920123 14.9724741,17.5507457 15.2761513,17.4707661 C15.9656304,17.2890501 16.5758449,16.9106027 17.0953546,16.3502349" id="Fill-7224" fill="#87D7EF"></path>
                <path d="M6.12292135,5.986762 L5.76,6.41944842 L9.13824311,9.25039837 L9.50729316,8.81066394 C9.60984678,8.68849847 9.7497855,8.41924413 9.54273749,7.986762 C9.17327886,7.21291113 7.50565884,5.76 6.6425332,5.76 C6.57368744,5.76 6.50729316,5.76847804 6.44641471,5.78451481 C6.31730337,5.81852911 6.20565884,5.88829418 6.12292135,5.986762" id="Fill-7225" fill="#50B4D1"></path>
                <path d="M14.3931359,17.5263739 C13.3226558,17.5263739 12.1949745,17.0747906 11.2174464,16.2540552 L6.72582227,12.4848008 C6.72377937,12.4834729 6.72173647,12.48143 6.72,12.48 C6.72173647,12.48143 6.72377937,12.4830644 6.72582227,12.4848008 L11.2174464,16.2540552 C12.1949745,17.0747906 13.3226558,17.5263739 14.3931359,17.5263739 C14.7159142,17.5263739 15.0343003,17.4851073 15.3379775,17.4051277 C15.3410419,17.4044127 15.3434934,17.4037998 15.3461491,17.4031869 C15.3434934,17.4037998 15.3410419,17.4044127 15.3379775,17.4051277 C15.0343003,17.4851073 14.7159142,17.5263739 14.3931359,17.5263739 L14.3931359,17.5263739 Z M15.3461491,17.4031869 C15.348907,17.4023698 15.351665,17.4017569 15.3543207,17.4010419 C15.351665,17.4017569 15.348907,17.4023698 15.3461491,17.4031869 L15.3461491,17.4031869 Z M15.3557508,17.4003269 C15.3581001,17.4000204 15.360143,17.3993054 15.3621859,17.3986925 C15.360143,17.3993054 15.3581001,17.4000204 15.3557508,17.4003269 L15.3557508,17.4003269 Z M15.3649438,17.3979775 C15.3665781,17.3976711 15.3683146,17.3969561 15.3700511,17.3966496 C15.3683146,17.3969561 15.3665781,17.3976711 15.3649438,17.3979775 L15.3649438,17.3979775 Z M15.3737283,17.3956282 C15.3751583,17.3952196 15.3767926,17.3949132 15.3778141,17.3946067 C15.3767926,17.3949132 15.3754648,17.3952196 15.3737283,17.3956282 L15.3737283,17.3956282 Z M15.3833299,17.3928703 C15.3843514,17.3925638 15.3849642,17.3925638 15.3856793,17.3921553 C15.3849642,17.3925638 15.3839428,17.3928703 15.3833299,17.3928703 L15.3833299,17.3928703 Z M15.3931359,17.3901124 L15.3935444,17.3901124 L15.3931359,17.3901124 L15.3931359,17.3901124 Z M17.4258223,15.9765271 L17.4574872,15.9390398 L17.4571808,15.9390398 L17.4258223,15.9765271 L17.4258223,15.9765271 Z" id="Fill-7226" fill="#252624"></path>
                <path d="M16.9464556,16.6713585 L16.32,16.1464351 C16.3203064,16.1460266 16.3206129,16.145618 16.3206129,16.1453115 L16.3298059,16.1368335 L16.5906844,15.84 L17.2154035,16.3635955 L16.9464556,16.6713585" id="Fill-7227" fill="#7DA8A8"></path>
                <path d="M17.4257406,15.9662921 L17.4247191,15.9655771 L16.8,15.4419816 L16.8367722,15.4003064 L17.1051073,15.0836568 C17.1039837,15.080286 17.345046,14.7799796 17.6508682,14.4 C17.7250255,14.5038815 17.7852911,14.6025536 17.828192,14.6924413 C17.9075587,14.8579162 17.9364658,14.9998979 17.9364658,15.1194076 C17.9361593,15.318999 17.8547497,15.4557712 17.7890705,15.5335036 L17.4574055,15.9288049 L17.4257406,15.9662921" id="Fill-7228" fill="#2C8DA8"></path>
                <polyline id="Fill-7229" fill="#252624" points="5.76276643 6.72212802 5.76 6.72 5.76276643 6.72212802"></polyline>
                <path d="M6.38655771,7.56269663 L5.76,7.03756895 L6.01740552,6.72 L6.64355465,7.24461696 L6.38757916,7.56116445 C6.38717058,7.56157303 6.38717058,7.56228805 6.38655771,7.56269663" id="Fill-7230" fill="#7DA8A8"></path>
                <path d="M14.3307033,17.5920123 C13.2602233,17.5920123 12.132542,17.140429 11.1550139,16.3196936 L6.66338976,12.5504392 C6.66134686,12.5487028 6.65930396,12.5470684 6.65756749,12.5456384 C4.65389027,10.8592237 4.23744492,8.56637385 5.5727871,6.75912155 L5.57217423,6.75850868 L5.58167372,6.74717058 L5.60108128,6.72 L5.60240917,6.72102145 L6.22896688,7.24614913 C5.14040712,8.72081716 5.50812929,10.5132584 7.18872173,11.9245965 L11.6807544,15.6937487 C12.5104786,16.391093 13.4519495,16.7748519 14.3307033,16.7748519 C14.5813673,16.7748519 14.8291712,16.7435955 15.0671691,16.6811849 C15.587496,16.5440041 16.0583847,16.2559551 16.4669648,15.8242901 L17.0934204,16.3492135 L17.0947483,16.3502349 L17.0753407,16.3697446 L17.0620619,16.3849642 L17.061449,16.3843514 C16.5632876,16.9106027 15.9831038,17.2727068 15.3311119,17.4557508 L15.3307033,17.4557508 C15.328354,17.4564658 15.3255961,17.4571808 15.3232468,17.4577937 C15.3225317,17.4582022 15.3219189,17.4582022 15.3208974,17.4585087 C15.319161,17.4592237 15.3174245,17.4595301 15.3153816,17.4602451 C15.3143601,17.4605516 15.3127258,17.460858 15.3112958,17.4612666 C15.3102743,17.461573 15.3089464,17.4618795 15.3076186,17.462288 C15.3058821,17.4625945 15.3041456,17.4633095 15.3025113,17.4636159 C15.3014899,17.4640245 15.3007748,17.4643309 15.2997534,17.4643309 C15.2977105,17.4649438 15.2956676,17.4656588 15.2933183,17.4659653 C15.2929097,17.4663739 15.2922968,17.4663739 15.2918882,17.4666803 C15.2892325,17.4673953 15.2864745,17.4680082 15.2837166,17.4688253 C15.2810609,17.4694382 15.2786094,17.4700511 15.275545,17.4707661 C14.9718678,17.5507457 14.6534817,17.5920123 14.3307033,17.5920123" id="Fill-7231" fill="#50B4D1"></path>
                <path d="M6.386762,6.94488253 L5.76061287,6.42026558 L5.76,6.41944842 L6.12292135,5.986762 C6.20565884,5.88829418 6.31730337,5.81852911 6.44641471,5.78451481 C6.50729316,5.76847804 6.57368744,5.76 6.6425332,5.76 L6.6507048,5.76 C6.82435138,5.7620429 7.02966292,5.82230848 7.25029622,5.92251277 L6.42496425,6.89820225 L6.386762,6.94488253" id="Fill-7232" fill="#2C8DA8"></path>
            </g>
        </g>
    </g>
</svg>