<?xml version="1.0" encoding="UTF-8" standalone="no"?>
<svg width="26px" height="26px" viewBox="0 0 26 26" version="1.1" xmlns="http://www.w3.org/2000/svg" xmlns:xlink="http://www.w3.org/1999/xlink">
    <!-- Generator: Sketch 3.8.3 (29802) - http://www.bohemiancoding.com/sketch -->
    <title>Essential</title>
    <desc>Created with Sketch.</desc>
    <defs></defs>
    <g id="Week-4" stroke="none" stroke-width="1" fill="none" fill-rule="evenodd">
        <g id="Tracker-List-View" transform="translate(-2120.000000, -1171.000000)">
            <g id="Essential" transform="translate(2121.000000, 1172.000000)">
                <ellipse id="Oval-375-Copy-2" stroke="#E58628" fill="#FC9734" cx="11.8651685" cy="11.8651685" rx="11.8651685" ry="11.8651685"></ellipse>
                <g id="Site-Testing-Clipboard" transform="translate(6.531947, 4.950863)">
                    <path d="M5.37298302,0.811016305 C5.26116415,0.811016305 5.17022894,0.902357016 5.17022894,1.01377038 C5.17022894,1.12558925 5.26116415,1.21652446 5.37298302,1.21652446 C5.48449776,1.21652446 5.5757371,1.12558925 5.5757371,1.01377038 C5.5757371,0.902357016 5.48449776,0.811016305 5.37298302,0.811016305 L5.37298302,0.811016305 Z M1.01377038,13.3818704 C0.454574639,13.3818704 0,12.9272958 0,12.3679986 L0,2.43304891 C0,1.8741573 0.454574639,1.41927853 1.01377038,1.41927853 L3.34544226,1.41927853 L3.34544226,0.811016305 L4.37948805,0.811016305 C4.47366731,0.349041142 4.88333193,0 5.37298302,0 C5.86232998,0 6.27219735,0.349041142 6.36607248,0.811016305 L7.40052378,0.811016305 L7.40052378,1.41927853 L9.73219566,1.41927853 C10.2911886,1.41927853 10.745966,1.8741573 10.745966,2.43304891 L10.745966,12.3679986 C10.745966,12.9272958 10.2911886,13.3818704 9.73219566,13.3818704 L1.01377038,13.3818704 L1.01377038,13.3818704 Z" id="Fill-13872" fill="#C27223"></path>
                    <path d="M0.811016305,1.44 C0.364957337,1.44 0,1.80526147 0,2.2510163 L0,12.185966 C0,12.6324305 0.364957337,12.9969823 0.811016305,12.9969823 L9.52944158,12.9969823 C9.97550055,12.9969823 10.3404579,12.6324305 10.3404579,12.185966 L10.3404579,2.2510163 C10.3404579,1.80526147 9.97550055,1.44 9.52944158,1.44 L0.811016305,1.44" id="Fill-13873" fill="#825D44"></path>
                    <polyline id="Fill-13874" fill="#654836" points="5.39370449 12.5 1.44 12.5 1.44 12 1.44 12.2499375 5.39370449 12.2499375 5.39370449 12.5"></polyline>
                    <path d="M0,2.45377038 L0,2.2510163 C0,1.80526147 0.364957337,1.44 0.811016305,1.44 L3.34544226,1.44 L3.34544226,1.64275408 L0.811016305,1.64275408 C0.364957337,1.64275408 0,2.00801554 0,2.45377038" id="Fill-13875" fill="#9C7C66"></path>
                    <polygon id="Fill-13876" fill="#EAE0C8" points="1.44 2.4 9.34740897 2.4 9.34740897 12.3349497 1.44 12.3349497"></polygon>
                    <polygon id="Fill-13877" fill="#57595B" points="2.4 7.7 8.68537636 7.7 8.68537636 7.2 2.4 7.2"></polygon>
                    <polygon id="Fill-13878" fill="#57595B" points="2.4 6.74 8.68537636 6.74 8.68537636 6.24 2.4 6.24"></polygon>
                    <polygon id="Fill-13879" fill="#57595B" points="2.4 5.3 8.68537636 5.3 8.68537636 4.8 2.4 4.8"></polygon>
                    <polygon id="Fill-13880" fill="#57595B" points="2.4 9.14 8.68537636 9.14 8.68537636 8.64 2.4 8.64"></polygon>
                    <polygon id="Fill-13881" fill="#57595B" points="2.4 10.1 8.68537636 10.1 8.68537636 9.6 2.4 9.6"></polygon>
                    <polygon id="Fill-13882" fill="#573F30" points="3.36 1.92 3.78240433 1.92 3.78240433 2.34240433 3.36 2.34240433"></polygon>
                    <polyline id="Fill-13883" fill="#9B9787" points="5.38754076 2.90688519 3.36 2.90688519 3.36 2.4 3.56275408 2.4 3.56275408 2.70413111 5.38754076 2.70413111 5.38754076 2.90688519"></polyline>
                    <path d="M5.18478669,1.21652446 C4.96074343,1.21652446 4.77927853,1.03505956 4.77927853,0.811016305 C4.77927853,0.587277182 4.96074343,0.405508152 5.18478669,0.405508152 C5.40852581,0.405508152 5.59029484,0.587277182 5.59029484,0.811016305 C5.59029484,1.03505956 5.40852581,1.21652446 5.18478669,1.21652446 L5.18478669,1.21652446 Z M5.99580299,0.811016305 C5.99580299,0.363233928 5.63277182,0 5.18478669,0 C4.73670018,0 4.37377038,0.363233928 4.37377038,0.811016305 L3.36,0.811016305 L3.36,2.43304891 L7.00957337,2.43304891 L7.00957337,0.811016305 L5.99580299,0.811016305 L5.99580299,0.811016305 Z" id="Fill-13884" fill="#E7E7E4"></path>
                    <path d="M9.63921264,12.7942283 L5.28,12.7942283 L5.28,12.0846904 L9.23370449,12.0846904 L9.23370449,1.94688519 L7.30754076,1.94688519 L7.30754076,1.74413111 L7.10478669,1.74413111 L7.10478669,1.44 L9.63921264,1.44 C10.0852716,1.44 10.4502289,1.80526147 10.4502289,2.2510163 L10.4502289,11.983212 C10.4502289,12.4296764 10.0852716,12.7942283 9.63921264,12.7942283" id="Fill-13885" fill="#73523C"></path>
                    <polygon id="Fill-13886" fill="#594130" points="5.28 12 9.23370449 12 9.23370449 12.4224043 5.28 12.4224043"></polygon>
                    <path d="M10.5454423,2.45377038 C10.5454423,2.00801554 10.1804849,1.64275408 9.73442595,1.64275408 L7.2,1.64275408 L7.2,1.44 L9.73442595,1.44 C10.1804849,1.44 10.5454423,1.80526147 10.5454423,2.2510163 L10.5454423,2.45377038" id="Fill-13887" fill="#8B6F5B"></path>
                    <polyline id="Fill-13888" fill="#CDC6B2" points="9.23370449 12.3349497 5.28 12.3349497 5.28 10.4088874 8.42268818 10.4088874 8.42268818 10.0032779 5.28 10.0032779 5.28 9.19236293 8.42268818 9.19236293 8.42268818 8.7867534 5.28 8.7867534 5.28 7.9757371 8.42268818 7.9757371 8.42268818 7.57022894 5.28 7.57022894 5.28 6.75921264 8.42268818 6.75921264 8.42268818 6.35370449 5.28 6.35370449 5.28 5.54268818 8.42268818 5.54268818 8.42268818 5.13718003 5.28 5.13718003 5.28 2.90688519 7.30754076 2.90688519 7.30754076 2.4 9.23370449 2.4 9.23370449 12.3349497"></polyline>
                    <polygon id="Fill-13889" fill="#4D4F51" points="5.28 7.2 8.42268818 7.2 8.42268818 7.7 5.28 7.7"></polygon>
                    <polygon id="Fill-13890" fill="#4D4F51" points="5.28 6.24 8.42268818 6.24 8.42268818 6.74 5.28 6.74"></polygon>
                    <polygon id="Fill-13891" fill="#4D4F51" points="5.28 4.8 8.42268818 4.8 8.42268818 5.3 5.28 5.3"></polygon>
                    <polygon id="Fill-13892" fill="#4D4F51" points="5.28 8.64 8.42268818 8.64 8.42268818 9.14 5.28 9.14"></polygon>
                    <polygon id="Fill-13893" fill="#4D4F51" points="5.28 9.6 8.42268818 9.6 8.42268818 10.1 5.28 10.1"></polygon>
                    <polygon id="Fill-13894" fill="#4E392C" points="7.2 1.92 7.62240433 1.92 7.62240433 2.34240433 7.2 2.34240433"></polygon>
                    <polyline id="Fill-13895" fill="#8B8878" points="7.30754076 2.90688519 5.28 2.90688519 5.28 2.70413111 7.10478669 2.70413111 7.10478669 2.4 7.30754076 2.4 7.30754076 2.90688519"></polyline>
                    <path d="M7.10478669,2.43304891 L5.28,2.43304891 L5.28,1.21652446 C5.50373912,1.21652446 5.68550815,1.03505956 5.68550815,0.811016305 C5.68550815,0.587277182 5.50373912,0.405508152 5.28,0.405508152 L5.28,0 C5.72798513,0 6.0910163,0.363233928 6.0910163,0.811016305 L7.10478669,0.811016305 L7.10478669,2.43304891" id="Fill-13896" fill="#CBCAC6"></path>
                </g>
            </g>
        </g>
    </g>
</svg>