<?xml version="1.0" encoding="UTF-8" standalone="no"?>
<svg width="14px" height="12px" viewBox="0 0 14 12" version="1.1" xmlns="http://www.w3.org/2000/svg" xmlns:xlink="http://www.w3.org/1999/xlink">
    <!-- Generator: Sketch 3.8.3 (29802) - http://www.bohemiancoding.com/sketch -->
    <title>Export</title>
    <desc>Created with Sketch.</desc>
    <defs></defs>
    <g id="Annotated-Wireframe" stroke="none" stroke-width="1" fill="none" fill-rule="evenodd">
        <g id="Local-Settings-Specs---Account" transform="translate(-718.000000, -688.000000)" fill="#2092BF">
            <g id="Export" transform="translate(718.000000, 688.000000)">
                <path d="M10.7499194,6.99997385 L10.249854,6.99997385 C10.1768818,6.99997385 10.1169507,7.02337117 10.0702524,7.07026169 C10.0232664,7.11705633 9.99986924,7.17698799 9.99986924,7.24996077 L9.99986924,9.7499259 C9.99986924,10.0936939 9.87760973,10.3878864 9.63280303,10.6326952 C9.38799634,10.8775041 9.0937105,10.9997646 8.74994552,10.9997646 L2.24995859,10.9997646 C1.90619361,10.9997646 1.61190777,10.8775041 1.36710108,10.6326952 C1.12229438,10.3878864 0.999938979,10.0936939 0.999938979,9.7499259 L0.999938979,3.24988232 C0.999938979,2.90611434 1.12229438,2.61192182 1.36710108,2.36711299 C1.61190777,2.12230417 1.90619361,1.9999477 2.24995859,1.9999477 L7.74981476,1.9999477 C7.8228828,1.9999477 7.88281393,1.97645449 7.92960816,1.92965985 C7.97640239,1.88276932 7.9997995,1.82293356 7.9997995,1.74996077 L7.9997995,1.24989103 C7.9997995,1.17701414 7.97640239,1.11708248 7.92960816,1.07028785 C7.88281393,1.02339732 7.8228828,1 7.74981476,1 L2.24995859,1 C1.63022273,1 1.10023972,1.22006904 0.660105479,1.66011123 C0.220067123,2.10024932 0,2.63023694 0,3.24997821 L0,9.75002179 C0,10.3697631 0.220067123,10.8997507 0.660105479,11.339697 C1.10023972,11.7798351 1.63022273,12 2.24995859,12 L8.74994552,12 C9.36968138,12 9.89966439,11.7798351 10.3397986,11.339697 C10.7799329,10.8997507 11,10.3697631 11,9.75002179 L11,7.25005666 C11,7.17708388 10.9766029,7.11715222 10.9296169,7.07026169 C10.8827268,7.02337117 10.8227956,6.99997385 10.7499194,6.99997385 L10.7499194,6.99997385 Z" id="Shape"></path>
                <path d="M13.8626042,0.137310123 C13.7710662,0.045770041 13.6624978,0 13.5373426,0 L9.83732482,0 C9.71208089,0 9.60360121,0.045770041 9.51215185,0.137310123 C9.4206138,0.228850205 9.37475608,0.337243597 9.37475608,0.462490298 C9.37475608,0.587737 9.4206138,0.696219093 9.51215185,0.787759175 L10.7840163,2.05965185 L6.07229023,6.77157113 C6.02403761,6.81973611 6,6.87517463 6,6.93770928 C6,7.00042133 6.02412631,7.05585985 6.07229023,7.10402484 L6.89613269,7.92779687 C6.94429661,7.97596186 6.9997339,8 7.06235586,8 C7.12497783,8 7.18041511,7.97596186 7.22857903,7.92779687 L11.9403051,3.21596629 L13.2122583,4.48785896 C13.3037076,4.57939905 13.4121873,4.62516909 13.5374313,4.62516909 C13.6626752,4.62516909 13.7711549,4.57939905 13.8626929,4.48785896 C13.954231,4.39631888 14,4.28792549 14,4.16267879 L14,0.462490298 C14,0.337154895 13.9540536,0.228850205 13.8626042,0.137310123 L13.8626042,0.137310123 Z" id="Shape"></path>
            </g>
        </g>
    </g>
</svg>