<?xml version="1.0" encoding="UTF-8" standalone="no"?>
<svg width="75px" height="22px" viewBox="0 0 75 22" version="1.1" xmlns="http://www.w3.org/2000/svg" xmlns:xlink="http://www.w3.org/1999/xlink">
    <!-- Generator: Sketch 3.8.3 (29802) - http://www.bohemiancoding.com/sketch -->
    <title>Ghostery Logo Copy 2</title>
    <desc>Created with Sketch.</desc>
    <defs></defs>
    <g id="Beyond-7.0" stroke="none" stroke-width="1" fill="none" fill-rule="evenodd">
        <g id="Ghostery-Logo-Copy-2">
            <g id="Ghosty">
                <path d="M16.4145727,9.15768762 C16.4145727,12.6511555 13.4749395,15.4831905 9.84874362,15.4831905 C6.22254772,15.4831905 3.28291454,12.6511555 3.28291454,9.15768762 C3.28291454,5.66421976 6.22254772,2.83218469 9.84874362,2.83218469 C13.4749395,2.83218469 16.4145727,5.66421976 16.4145727,9.15768762" id="Fill-1-Copy-10" fill="#FFFFFF"></path>
                <path d="M18.6497567,17.7741084 C17.7401417,15.7788775 17.5834891,14.0882656 17.5590774,13.4240202 L17.5590774,7.95869844 C17.5590774,3.78361173 13.9932392,0.399298943 9.59482411,0.399298943 C5.19591837,0.399298943 1.6299575,3.78361173 1.6299575,7.95869844 L1.6299575,13.5030263 C1.59597728,14.2176455 1.41724375,15.8565767 0.542712976,17.7741084 C-0.632732931,20.3507768 0.340058349,20.0436629 1.21139964,19.8317126 C2.08261826,19.6205941 4.02832349,18.7929902 4.6361647,19.812466 C5.24376057,20.8314666 5.75064248,21.7164538 7.1691022,21.1394122 C8.58768459,20.5626082 9.25612591,20.3703799 9.45865786,20.3703799 L9.73417983,20.3703799 C9.93646644,20.3703799 10.6051531,20.5626082 12.0236128,21.1394122 C13.4420725,21.7164538 13.9487091,20.8314666 14.556673,19.812466 C15.1642689,18.7929902 17.1098514,19.6205941 17.9813154,19.8317126 C18.8526567,20.0436629 19.8249573,20.3507768 18.6497567,17.7741084" id="Path-Copy-22" fill="#FFFFFF"></path>
                <path d="M7.13647137,4.52127929 C7.99431871,4.52127929 8.68974794,5.5657044 8.68974794,6.85451382 C8.68974794,8.14320443 7.99431871,9.18798596 7.13647137,9.18798596 C6.27862403,9.18798596 5.58307213,8.14320443 5.58307213,6.85451382 C5.58307213,5.5657044 6.27862403,4.52127929 7.13647137,4.52127929" id="Path-Copy-23" fill="#00AEF0"></path>
                <path d="M9.59482411,13.8473266 C7.70444408,13.8473266 6.1131391,12.0815104 5.63361311,10.1166939 C6.55978892,11.3251903 7.98928915,12.1018263 9.59482411,12.1018263 C11.2002364,12.1018263 12.629614,11.3251903 13.5559124,10.1166939 C13.0763864,12.0815104 11.4848361,13.8473266 9.59482411,13.8473266" id="Path-Copy-24" fill="#00AEF0"></path>
                <path d="M12.0531769,9.18798596 C11.1947161,9.18798596 10.4995323,8.14320443 10.4995323,6.85451382 C10.4995323,5.5657044 11.1947161,4.52127929 12.0531769,4.52127929 C12.9115149,4.52127929 13.6064534,5.5657044 13.6064534,6.85451382 C13.6064534,8.14320443 12.9115149,9.18798596 12.0531769,9.18798596" id="Path-Copy-25" fill="#00AEF0"></path>
            </g>
            <path d="M27.9665665,9.83790572 L30.4129524,9.83790572 L30.4129524,13.3786422 C30.4129524,15.1648634 29.5231851,16.1857695 27.8075609,16.1857695 C26.0921738,16.1857695 25.2027622,15.1648634 25.2027622,13.3786422 L25.2027622,7.57305885 C25.2027622,5.7864732 26.0921738,4.76617451 27.8075609,4.76617451 C29.5231851,4.76617451 30.4129524,5.7864732 30.4129524,7.57305885 L30.4129524,8.6577412 L28.760883,8.6577412 L28.760883,7.46129855 C28.760883,6.66415603 28.4116873,6.36118842 27.8555827,6.36118842 C27.2993595,6.36118842 26.9499266,6.66415603 26.9499266,7.46129855 L26.9499266,13.4904025 C26.9499266,14.2879095 27.2993595,14.5750849 27.8555827,14.5750849 C28.4116873,14.5750849 28.760883,14.2879095 28.760883,13.4904025 L28.760883,11.4330411 L27.9665665,11.4330411 L27.9665665,9.83790572" id="Fill-3-Copy-2" fill="#FFFFFF"></path>
            <polyline id="Fill-4-Copy" fill="#FFFFFF" points="33.4623498 15.9375175 31.6534739 15.9375175 31.6534739 4.76617451 33.4623498 4.76617451 33.4623498 9.55382346 35.5177288 9.55382346 35.5177288 4.76617451 37.3598727 4.76617451 37.3598727 15.9375175 35.5177288 15.9375175 35.5177288 11.1496254 33.4623498 11.1496254 33.4623498 15.9375175"></polyline>
            <path d="M38.6003942,7.57318237 C38.6003942,5.78703715 39.5647994,4.76617451 41.3295415,4.76617451 C43.0947714,4.76617451 44.0586887,5.78703715 44.0586887,7.57318237 L44.0586887,13.3785187 C44.0586887,15.1646639 43.0947714,16.1857695 41.3295415,16.1857695 C39.5647994,16.1857695 38.6003942,15.1646639 38.6003942,13.3785187 L38.6003942,7.57318237 L38.6003942,7.57318237 Z M40.3979499,13.4902743 C40.3979499,14.2877473 40.7580466,14.590945 41.3295415,14.590945 C41.9017683,14.590945 42.2608891,14.2877473 42.2608891,13.4902743 L42.2608891,7.46142682 C42.2608891,6.66407527 41.9017683,6.36099908 41.3295415,6.36099908 C40.7580466,6.36099908 40.3979499,6.66407527 40.3979499,7.46142682 L40.3979499,13.4902743 L40.3979499,13.4902743 Z" id="Fill-5-Copy" fill="#FFFFFF"></path>
            <path d="M47.4242222,4.76617451 C49.1240376,4.76617451 49.9976592,5.78720207 49.9976592,7.57354476 L49.9976592,7.9240105 L48.3456275,7.9240105 L48.3456275,7.4615415 C48.3456275,6.66415603 48.0276235,6.36118842 47.4712944,6.36118842 C46.9157953,6.36118842 46.5975542,6.66415603 46.5975542,7.4615415 C46.5975542,9.75809428 50.0131919,10.1889788 50.0131919,13.3788852 C50.0131919,15.1654708 49.1240376,16.1857695 47.4080967,16.1857695 C45.6929859,16.1857695 44.8030016,15.1654708 44.8030016,13.3788852 L44.8030016,12.6930171 L46.4550334,12.6930171 L46.4550334,13.4904025 C46.4550334,14.2876665 46.8048141,14.5748419 47.3606689,14.5748419 C47.9164051,14.5748419 48.2655929,14.2876665 48.2655929,13.4904025 C48.2655929,11.1933638 44.8507852,10.7628437 44.8507852,7.57354476 C44.8507852,5.78720207 45.7241697,4.76617451 47.4242222,4.76617451" id="Fill-6-Copy" fill="#FFFFFF"></path>
            <polyline id="Fill-7-Copy" fill="#FFFFFF" points="50.5094005 4.76617451 55.967695 4.76617451 55.967695 6.36251476 54.1220182 6.36251476 54.1220182 15.9375175 52.3556764 15.9375175 52.3556764 6.36251476 50.5094005 6.36251476 50.5094005 4.76617451"></polyline>
            <polyline id="Fill-8-Copy" fill="#FFFFFF" points="58.779021 9.47394741 61.2770417 9.47394741 61.2770417 11.0696625 58.779021 11.0696625 58.779021 14.3413161 61.9221981 14.3413161 61.9221981 15.9375175 56.9601122 15.9375175 56.9601122 4.76617451 61.9221981 4.76617451 61.9221981 6.36213274 58.779021 6.36213274 58.779021 9.47394741"></polyline>
            <path d="M66.5854476,15.9375175 C66.4901354,15.6501564 66.4257996,15.4743848 66.4257996,14.5653806 L66.4257996,12.8096095 C66.4257996,11.772241 66.0748122,11.3892145 65.2763338,11.3892145 L64.670267,11.3892145 L64.670267,15.9375175 L62.9146153,15.9375175 L62.9146153,4.76617451 L65.564296,4.76617451 C67.3835686,4.76617451 68.1663205,5.61209054 68.1663205,7.33577059 L68.1663205,8.21353459 C68.1663205,9.36212787 67.7987726,10.1126216 67.0167356,10.4793594 C67.894204,10.8463404 68.1815705,11.692378 68.1815705,12.8573815 L68.1815705,14.5810615 C68.1815705,15.1238141 68.1975353,15.5228861 68.3729098,15.9375175 L66.5854476,15.9375175 L66.5854476,15.9375175 Z M64.670267,6.36209801 L64.670267,9.79304788 L65.3565153,9.79304788 C66.0113104,9.79304788 66.4094774,9.50617306 66.4094774,8.61212041 L66.4094774,7.51081285 C66.4094774,6.71279032 66.1385523,6.36209801 65.5165207,6.36209801 L64.670267,6.36209801 L64.670267,6.36209801 Z" id="Fill-9-Copy" fill="#FFFFFF"></path>
            <polyline id="Fill-10-Copy" fill="#FFFFFF" points="70.8429897 12.2351305 68.6210141 4.76617451 70.4590182 4.76617451 71.8026798 9.8573516 73.1450289 4.76617451 74.8236215 4.76617451 72.601646 12.2351305 72.601646 15.9375175 70.8429897 15.9375175 70.8429897 12.2351305"></polyline>
        </g>
    </g>
</svg>