<?xml version="1.0" encoding="UTF-8" standalone="no"?>
<svg width="11px" height="19px" viewBox="0 0 11 19" version="1.1" xmlns="http://www.w3.org/2000/svg" xmlns:xlink="http://www.w3.org/1999/xlink">
    <!-- Generator: Sketch 3.8.3 (29802) - http://www.bohemiancoding.com/sketch -->
    <title>Shape</title>
    <desc>Created with Sketch.</desc>
    <defs></defs>
    <g id="6.4-Mocks" stroke="none" stroke-width="1" fill="none" fill-rule="evenodd">
        <g id="Panel-with-Opt-in-Recapture---Learn-More" transform="translate(-713.000000, -187.000000)" fill="#000000">
            <path d="M716.382867,196.431521 L723.811161,189.003459 C723.937131,188.877489 724,188.732495 724,188.568711 C724,188.404927 723.937131,188.259933 723.811161,188.134195 L722.866037,187.189071 C722.740067,187.063101 722.595073,187 722.431521,187 C722.267737,187 722.122743,187.063101 721.996773,187.189071 L713.188839,195.996773 C713.062869,196.122743 713,196.267737 713,196.431521 C713,196.595305 713.062869,196.740299 713.188839,196.866269 L721.996541,205.673971 C722.122511,205.800173 722.267505,205.863042 722.431289,205.863042 C722.594841,205.863042 722.739835,205.800173 722.865805,205.673971 L723.810929,204.729311 C723.936899,204.603341 723.999768,204.458347 723.999768,204.294331 C723.999768,204.130779 723.936899,203.985785 723.810929,203.859815 L716.382867,196.431521 L716.382867,196.431521 Z" id="Shape"></path>
        </g>
    </g>
</svg>