<?xml version="1.0" encoding="UTF-8" standalone="no"?>
<svg width="26px" height="26px" viewBox="0 0 26 26" version="1.1" xmlns="http://www.w3.org/2000/svg" xmlns:xlink="http://www.w3.org/1999/xlink">
    <!-- Generator: Sketch 3.8.3 (29802) - http://www.bohemiancoding.com/sketch -->
    <title>Pornvertising</title>
    <desc>Created with Sketch.</desc>
    <defs></defs>
    <g id="Week-4" stroke="none" stroke-width="1" fill="none" fill-rule="evenodd">
        <g id="Tracker-List-View" transform="translate(-2120.000000, -1134.000000)">
            <g id="Pornvertising" transform="translate(2121.000000, 1135.000000)">
                <ellipse id="Oval-375-Copy-16" stroke="#CCCCCC" fill="#E8E8E8" cx="11.8651685" cy="11.8651685" rx="11.8651685" ry="11.8651685"></ellipse>
                <polyline id="Fill-6838" fill="#4A4A4A" points="9.02292135 13.5307462 6.96336288 11.4711877 9.02292135 9.41235717 8.25001821 8.64 6.19173366 10.6995585 4.13217519 8.64072795 3.36 9.41235717 5.41955847 11.4711877 3.36 13.5307462 4.13217519 14.3023754 6.19173366 12.2433629 8.25001821 14.3023754 9.02292135 13.5307462"></polyline>
                <polyline id="Fill-6838-Copy" fill="#4A4A4A" points="15.2629213 13.5307462 13.2033629 11.4711877 15.2629213 9.41235717 14.4900182 8.64 12.4317337 10.6995585 10.3721752 8.64072795 9.6 9.41235717 11.6595585 11.4711877 9.6 13.5307462 10.3721752 14.3023754 12.4317337 12.2433629 14.4900182 14.3023754 15.2629213 13.5307462"></polyline>
                <polyline id="Fill-6838-Copy-2" fill="#4A4A4A" points="21.5029213 13.5307462 19.4433629 11.4711877 21.5029213 9.41235717 20.7300182 8.64 18.6717337 10.6995585 16.6121752 8.64072795 15.84 9.41235717 17.8995585 11.4711877 15.84 13.5307462 16.6121752 14.3023754 18.6717337 12.2433629 20.7300182 14.3023754 21.5029213 13.5307462"></polyline>
            </g>
        </g>
    </g>
</svg>