<?xml version="1.0" encoding="UTF-8" standalone="no"?>
<svg width="14px" height="14px" viewBox="0 0 14 14" version="1.1" xmlns="http://www.w3.org/2000/svg" xmlns:xlink="http://www.w3.org/1999/xlink">
    <!-- Generator: Sketch 3.8.3 (29802) - http://www.bohemiancoding.com/sketch -->
    <title>Shape</title>
    <desc>Created with Sketch.</desc>
    <defs></defs>
    <g id="Annotated-Wireframe" stroke="none" stroke-width="1" fill="none" fill-rule="evenodd">
        <g id="Local-Settings---Trackers-&amp;-Blocking" transform="translate(-771.000000, -279.000000)" fill="#2092BF">
            <path d="M784.061386,282.486296 C783.435457,281.413882 782.586342,280.564766 781.513928,279.938837 C780.441291,279.312909 779.270317,279 778.000224,279 C776.730242,279 775.558933,279.312909 774.486519,279.938837 C773.413994,280.564655 772.564878,281.41377 771.938949,282.486296 C771.312909,283.558821 771,284.730131 771,286 C771,287.269981 771.31302,288.441067 771.938837,289.513704 C772.564766,290.586006 773.413882,291.435234 774.486407,292.061163 C775.558933,292.687091 776.730131,293 778.000112,293 C779.270093,293 780.441403,292.687091 781.513816,292.061163 C782.58623,291.435345 783.435345,290.586118 784.061274,289.513704 C784.687091,288.441179 785,287.269869 785,286 C785,284.730019 784.687091,283.558709 784.061386,282.486296 L784.061386,282.486296 Z M779.166946,290.375014 C779.166946,290.460037 779.139426,290.529958 779.084832,290.584552 C779.03035,290.639146 778.960429,290.666443 778.875406,290.666443 L777.125266,290.666443 C777.040242,290.666443 776.970322,290.639146 776.915616,290.584552 C776.86091,290.529958 776.833613,290.460037 776.833613,290.375014 L776.833613,288.624874 C776.833613,288.539851 776.86091,288.46993 776.915616,288.415224 C776.970322,288.360742 777.040242,288.333445 777.125266,288.333445 L778.875406,288.333445 C778.960429,288.333445 779.03035,288.360742 779.084832,288.415224 C779.139426,288.46993 779.166946,288.539851 779.166946,288.624874 L779.166946,290.375014 L779.166946,290.375014 Z M781.386281,284.988221 C781.310319,285.213086 781.225296,285.397005 781.131099,285.539755 C781.036902,285.682505 780.901648,285.828387 780.725336,285.977178 C780.54936,286.126081 780.409519,286.232472 780.306036,286.296351 C780.20289,286.360007 780.053875,286.446709 779.859552,286.556008 C779.659075,286.671461 779.493615,286.821818 779.36306,287.007192 C779.232392,287.192453 779.167058,287.342922 779.167058,287.458263 C779.167058,287.543399 779.139537,287.613319 779.084944,287.667913 C779.030461,287.722619 778.960541,287.749916 778.875517,287.749916 L777.125378,287.749916 C777.040354,287.749916 776.970434,287.722619 776.915728,287.667913 C776.861022,287.613319 776.833725,287.543399 776.833725,287.458263 L776.833725,287.130028 C776.833725,286.722923 776.993144,286.341548 777.312205,285.986128 C777.631267,285.630596 777.982212,285.367806 778.365041,285.197647 C778.656582,285.064071 778.863211,284.927251 778.984705,284.787521 C779.106423,284.647792 779.16717,284.462307 779.16717,284.231513 C779.16717,284.030925 779.05306,283.851704 778.825175,283.693628 C778.597289,283.535663 778.337744,283.456681 778.04598,283.456681 C777.729939,283.456681 777.468716,283.529622 777.262086,283.675505 C777.061498,283.821275 776.800275,284.100845 776.478193,284.513992 C776.423487,284.586933 776.347525,284.623516 776.250308,284.623516 C776.177367,284.623516 776.11964,284.60528 776.077128,284.568922 L774.874047,283.657493 C774.734318,283.548081 774.710041,283.420546 774.801106,283.274664 C775.578958,281.980406 776.706078,281.333221 778.182577,281.333221 C778.7114,281.333221 779.227917,281.457848 779.73224,281.706989 C780.236563,281.956018 780.657317,282.30853 780.994726,282.7643 C781.331687,283.219958 781.500503,283.71522 781.500503,284.249972 C781.500168,284.517348 781.462019,284.763357 781.386281,284.988221 L781.386281,284.988221 Z" id="Shape"></path>
        </g>
    </g>
</svg>