<?xml version="1.0" encoding="UTF-8" standalone="no"?>
<svg width="26px" height="26px" viewBox="0 0 26 26" version="1.1" xmlns="http://www.w3.org/2000/svg" xmlns:xlink="http://www.w3.org/1999/xlink">
    <!-- Generator: Sketch 3.8.3 (29802) - http://www.bohemiancoding.com/sketch -->
    <title>Social</title>
    <desc>Created with Sketch.</desc>
    <defs></defs>
    <g id="Week-4" stroke="none" stroke-width="1" fill="none" fill-rule="evenodd">
        <g id="Tracker-List-View" transform="translate(-2118.000000, -1209.000000)">
            <g id="Social" transform="translate(2119.000000, 1210.000000)">
                <ellipse id="Oval-375-Copy-11" stroke="#50B4D1" fill="#87D7EF" cx="11.8651685" cy="11.8651685" rx="11.8651685" ry="11.8651685"></ellipse>
                <g id="Group-Copy-60" transform="translate(5.932584, 5.123596)">
                    <path id="Fill-14600" fill="#212321"></path>
                    <path d="M7.33851938,1.62633917 C7.50488769,1.41938856 7.71541808,1.35458584 7.9136754,1.35458584 C8.24441896,1.35458584 8.54096575,1.53436112 8.54096575,1.53436112 C8.21158586,1.19571466 7.90245131,1.08419127 7.63810821,1.08419127 C7.54789589,1.08419127 7.46261377,1.09715182 7.38362554,1.11868304 C7.73985932,0.496472433 8.56226005,0.430938072 8.89415749,0.430938072 C8.98332084,0.430938072 9.03713354,0.435536974 9.03713354,0.435536974 C8.66610913,0.305931539 8.34302312,0.251580873 8.06263063,0.251580873 C7.37544349,0.251580873 6.94231943,0.576953227 6.67608818,0.920094068 C6.49545373,0.53274105 6.0988342,0.163051999 5.28,0 C5.28,0 6.16051425,0.42048602 6.18778774,1.15808727 C6.17687835,2.1029527 6.63391916,2.11235955 7.33851938,1.62633917" id="Fill-14689" fill="#E0BD55"></path>
                    <path d="M4.49806594,10.56 L4.49806594,12.8594513 L2.4,12.8594513 L2.4,13.2775333 L4.91755325,13.2775333 L4.91755325,10.56 L4.49806594,10.56 L4.49806594,10.56 Z M5.96653377,10.56 L5.96653377,13.2775333 L8.27439582,13.2775333 L8.27439582,12.8594513 L6.38623088,12.8594513 L6.38623088,10.56 L5.96653377,10.56 L5.96653377,10.56 Z" id="Fill-14690" fill="#CAAA7D"></path>
                    <path d="M5.96209059,1.04288477 C5.70435608,0.988847661 5.4284742,0.96 5.13402537,0.96 C5.06049183,0.96 4.98611912,0.961672328 4.91059252,0.965226026 C2.93431321,1.05971257 1.99589524,2.01983799 1.56423975,3.28035537 C1.19762106,3.43253724 0,4.08129605 0,4.08129605 L1.63294798,4.56909328 L0.21220876,4.99198328 C0.21220876,4.99198328 0.997265782,5.61670238 1.22489456,5.76094068 C1.222377,5.87674941 1.22132802,5.78184479 1.22132802,5.89650379 C1.22132802,8.62041286 2.71234894,10.3114502 4.61478001,11.0159185 L5.03426732,11.1538856 C5.37571048,11.2521348 5.72711896,11.3197596 6.08324784,11.3580141 L6.50294495,11.3904155 C6.59315728,11.3938646 6.68378919,11.3959551 6.77421131,11.3959551 C8.99605696,11.3959551 11.2461202,10.2629527 12.1674398,8.05098511 C10.1908458,8.75127254 9.06770233,7.10507447 9.06770233,5.81424615 C9.06770233,4.20285341 8.48719651,2.39715704 7.11282223,1.51113666 C6.74945537,1.3059629 6.37287137,1.13350405 5.96209059,1.04288477" id="Fill-14691" fill="#DA5051"></path>
                    <path d="M5.03836884,4.33670238 C5.03836884,4.4519885 4.94448508,4.54584792 4.82867763,4.54584792 C4.71266038,4.54584792 4.61877663,4.4519885 4.61877663,4.33670238 L4.61877663,3.71271492 C4.61877663,3.48412856 4.43782749,3.29808205 4.19928932,3.29808205 C3.96054135,3.29808205 3.77959221,3.48412856 3.77959221,3.71271492 L3.77959221,4.33670238 C3.77959221,4.4519885 3.68570845,4.54584792 3.569901,4.54584792 C3.45388376,4.54584792 3.36,4.4519885 3.36,4.33670238 L3.36,3.71271492 C3.36,3.25355631 3.72924114,2.88 4.19928932,2.88 C4.66923259,2.88 5.03836884,3.25355631 5.03836884,3.71271492 L5.03836884,4.33670238" id="Fill-14692" fill="#2D2E2B"></path>
                    <path id="Fill-14693" fill="#1A1C1C"></path>
                    <path id="Fill-14694" fill="#212321"></path>
                    <path d="M8.7650145,9.59985367 C7.26602134,9.59985367 5.77888165,8.59436634 5.76,6.75166972 C5.76,6.74132218 5.76146857,6.73045205 5.76167837,6.72 C5.82010658,8.01605435 7.84537328,8.30798014 9.35894727,8.30798014 C10.2391468,8.30798014 10.9461597,8.20899922 10.9927344,8.15151293 C11.0236794,8.15569375 11.0552537,8.15882937 11.0867231,8.16165142 C11.145466,8.16656389 11.2055726,8.16896786 11.2665184,8.16896786 C11.3004004,8.16896786 11.3345972,8.16792265 11.3693184,8.16656389 L11.3730948,8.16656389 C10.7989877,9.13964986 9.77937867,9.59985367 8.7650145,9.59985367" id="Fill-14695" fill="#923839"></path>
                    <path d="M7.01978742,11.4410661 C6.92936529,11.4410661 6.83873338,11.4389757 6.74852105,11.4355265 L6.32882395,11.4031252 C6.10612538,11.3790854 5.88510518,11.3435485 5.66775642,11.2965142 C5.62265026,11.2868984 5.57785879,11.2766553 5.53306732,11.2658897 C5.4482048,11.2452992 5.36386676,11.2233499 5.27984342,11.1989966 L4.86035611,11.0610295 C4.10015993,10.7794513 3.40583972,10.3404651 2.84589392,9.74124902 C2.82155757,9.71480533 2.79690653,9.68836164 2.77288487,9.66108179 C2.61857984,9.48862294 2.47570869,9.30341259 2.34479592,9.10545074 C2.32538978,9.07576692 2.30608854,9.04618761 2.2868922,9.01587667 C2.15293739,8.80265482 2.03261932,8.57511367 1.92845555,8.33335772 C1.91439921,8.30126992 1.90107716,8.26928665 1.88796491,8.23688529 C1.7749897,7.95917429 1.68267942,7.66348576 1.6133418,7.34950614 C1.60599894,7.31501437 1.59876098,7.28083616 1.59173281,7.24571727 C1.51022702,6.84080481 1.46690412,6.40631304 1.46690412,5.94161484 C1.46690412,5.82695584 1.4679531,5.92186047 1.47047066,5.80605174 C1.24284188,5.66181343 2.36525104,5.28 2.36525104,5.28 C2.20014151,8.59706297 4.72954824,10.6817246 7.51952174,10.6817246 C9.24226245,10.6817246 11.0647612,9.88653253 12.4130159,8.09609616 C12.22357,8.55076039 11.9781085,8.95974915 11.6881703,9.32285341 C11.6634144,9.35379148 11.6385536,9.38452051 11.6129584,9.41483146 C11.4401913,9.62105043 11.2528434,9.81200941 11.0532224,9.98687222 C11.0269979,10.0102848 11.0004587,10.0328612 10.9734999,10.0555422 C10.5234873,10.4349517 10.014417,10.7373295 9.47135979,10.961317 C9.38607768,10.9965404 9.30037597,11.0297779 9.21352038,11.0610295 C8.83882454,11.1961745 8.44965277,11.2957826 8.05523609,11.358913 C7.9954442,11.3686334 7.935967,11.376995 7.87586042,11.3850431 C7.59190139,11.4226705 7.30552971,11.4410661 7.01978742,11.4410661" id="Fill-14696" fill="#B84345"></path>
                    <path d="M1.22489456,5.83954011 L1.22447496,5.85594983 C1.86508737,5.76982493 2.35936699,5.22422785 2.35936699,4.56229945 C2.35936699,4.02224196 2.0305116,3.55932062 1.5616173,3.36 C1.19132718,3.51427228 0,4.15989548 0,4.15989548 L1.63294798,4.64769271 L0.21220876,5.0705827 C0.21220876,5.0705827 0.997265782,5.6953018 1.22489456,5.83954011" id="Fill-14697" fill="#E0BD55"></path>
                    <path d="M11.2350817,8.0042347 C9.85567234,10.3430902 5.79045323,9.69955741 5.76003279,6.70295432 C5.75101156,5.80439148 7.60518953,4.19414847 9.01543894,6.36253102 C10.2307878,8.29271131 10.7618866,8.28644008 11.2350817,8.0042347" id="Fill-14698" fill="#DA5051"></path>
                </g>
            </g>
        </g>
    </g>
</svg>