<?xml version="1.0" encoding="UTF-8" standalone="no"?>
<svg width="347px" height="438px" viewBox="0 0 347 438" version="1.1" xmlns="http://www.w3.org/2000/svg" xmlns:xlink="http://www.w3.org/1999/xlink">
    <!-- Generator: Sketch 39.1 (31720) - http://www.bohemiancoding.com/sketch -->
    <title>Background</title>
    <desc>Created with Sketch.</desc>
    <defs></defs>
    <g id="6.4-Mocks" stroke="none" stroke-width="1" fill="none" fill-rule="evenodd">
        <g id="Background-Test" transform="translate(-894.000000, -165.000000)">
            <g id="Background" transform="translate(894.000000, 165.000000)">
                <rect id="Rectangle-4054" fill="#F0F0F0" x="0" y="0" width="347" height="438"></rect>
                <path d="M314.962453,392.546143 C308.428627,377.669751 307.303382,365.064591 307.12803,360.111994 L307.12803,319.362692 C307.12803,288.233351 281.514375,263 249.920265,263 C218.32263,263 192.708094,288.233351 192.708094,319.362692 L192.708094,360.701062 C192.464012,366.029244 191.180157,378.249074 184.898344,392.546143 C176.455037,411.757717 183.442662,409.467883 189.701565,407.887588 C195.959587,406.313493 209.935718,400.142899 214.301882,407.744085 C218.666284,415.341728 222.307251,421.940171 232.496142,417.637763 C242.685914,413.337127 247.487373,411.903877 248.942174,411.903877 L250.921267,411.903877 C252.374305,411.903877 257.177526,413.337127 267.366417,417.637763 C277.555309,421.940171 281.194513,415.341728 285.561559,407.744085 C289.92596,400.142899 303.90121,406.313493 310.160994,407.887588 C316.419897,409.467883 323.403998,411.757717 314.962453,392.546143 M232.261753,293.733382 C238.423728,293.733382 243.419042,301.520589 243.419042,311.12992 C243.419042,320.738364 238.423728,328.528229 232.261753,328.528229 C226.099778,328.528229 221.103582,320.738364 221.103582,311.12992 C221.103582,301.520589 226.099778,293.733382 232.261753,293.733382 M249.920265,363.268156 C236.341539,363.268156 224.911088,350.102275 221.466621,335.452652 C228.119404,344.463171 238.3876,350.253749 249.920265,350.253749 C261.452049,350.253749 271.719364,344.463171 278.373028,335.452652 C274.928561,350.102275 263.496348,363.268156 249.920265,363.268156 M267.578778,328.528229 C261.412397,328.528229 256.418845,320.738364 256.418845,311.12992 C256.418845,301.520589 261.412397,293.733382 267.578778,293.733382 C273.744277,293.733382 278.736068,301.520589 278.736068,311.12992 C278.736068,320.738364 273.744277,328.528229 267.578778,328.528229" id="Fill-2-Copy-3" fill-opacity="0.35" fill="#FFFFFF"></path>
            </g>
        </g>
    </g>
</svg>