<?xml version="1.0" encoding="UTF-8" standalone="no"?>
<svg width="18px" height="18px" viewBox="0 0 18 18" version="1.1" xmlns="http://www.w3.org/2000/svg" xmlns:xlink="http://www.w3.org/1999/xlink">
    <!-- Generator: Sketch 39.1 (31720) - http://www.bohemiancoding.com/sketch -->
    <title>warning-insecure</title>
    <desc>Created with Sketch.</desc>
    <defs></defs>
    <g id="Page-1" stroke="none" stroke-width="1" fill="none" fill-rule="evenodd">
        <g id="warning-insecure">
            <rect id="Rectangle-2351" fill="#FFE7C0" x="0" y="0" width="18" height="18" rx="4"></rect>
            <path d="M2.86593364,14.3277963 C3.76521402,14.3277963 4.51506496,13.6925861 4.69531759,12.9829315 C4.87557022,13.6933071 5.62542117,14.2299192 6.52452129,14.2299192 C7.42722647,14.2299192 8.17996145,13.6988949 8.35588802,12.9849142 C8.53271585,13.6988949 9.28545084,14.2488457 10.187435,14.2488457 C11.0843721,14.2488457 11.834223,13.7432371 12.0151967,13.0350245 C12.1961703,13.7432371 12.9460213,14.3270753 13.8431386,14.3270753 C14.2804315,14.3270753 14.6816739,14.1938686 15,13.9869386 C12.2906227,9.78056322 13.9720192,3 13.9720192,3 C6.27595291,4.61938964 2.89982113,11.8267911 2,14.1446597 C2.25902303,14.2587596 2.55337558,14.3277963 2.86593364,14.3277963 L2.86593364,14.3277963 L2.86593364,14.3277963 Z" id="shark" fill="#FFFFFF"></path>
        </g>
    </g>
</svg>