<?xml version="1.0" encoding="UTF-8" standalone="no"?>
<svg width="18px" height="18px" viewBox="0 0 18 18" version="1.1" xmlns="http://www.w3.org/2000/svg" xmlns:xlink="http://www.w3.org/1999/xlink">
    <!-- Generator: Sketch 39.1 (31720) - http://www.bohemiancoding.com/sketch -->
    <title>warning-slow</title>
    <desc>Created with Sketch.</desc>
    <defs></defs>
    <g id="Page-1" stroke="none" stroke-width="1" fill="none" fill-rule="evenodd">
        <g id="warning-slow">
            <rect id="Rectangle-2351" fill="#FF9D00" x="0" y="0" width="18" height="18" rx="4"></rect>
            <path d="M13.1298301,12.3271099 C14.2035923,11.6095212 14.9130564,10.3861085 14.9130564,8.99994102 C14.9130564,6.79475797 13.1185605,5 10.9133774,5 C8.70819438,5 6.91343641,6.79475797 6.91343641,8.99994102 C6.91343641,9.63680753 7.0638732,10.2385547 7.3291032,10.773208 C7.57887019,10.8222179 8.22595801,10.9461841 9.24861362,11.1191602 C10.3892075,11.3125789 11.1427018,11.1569004 11.7690849,10.5989215 C12.161164,10.2498243 12.3936334,9.76968462 12.423249,9.24656299 C12.4541751,8.72344136 12.2791023,8.21866568 11.9300051,7.82763489 C11.3688811,7.19810676 10.4015255,7.14175849 9.77068691,7.7018341 C9.26695957,8.1502615 9.203535,8.93337143 9.63047144,9.41351112 C9.96541605,9.78934099 10.5815778,9.83232293 10.9500693,9.5047167 C11.0863535,9.38389552 11.1670757,9.22218909 11.1754624,9.04999925 C11.1825387,8.90978379 11.1406051,8.77769295 11.0596209,8.68858406 C10.9870233,8.60891023 10.8714438,8.56487995 10.7524573,8.56592829 C10.6512925,8.56881122 10.52025,8.60891023 10.4353344,8.69277742 C10.4146297,8.71217171 10.3892075,8.7244897 10.3603781,8.7244897 C10.2980019,8.7244897 10.2479437,8.66814143 10.2479437,8.59973725 C10.2479437,8.55754157 10.2652413,8.52687763 10.2867322,8.49726202 C10.4146297,8.32218925 10.5949442,8.22076236 10.7739482,8.20556144 C11.0166389,8.18511881 11.2132027,8.25457133 11.3688811,8.42545074 C11.5235113,8.59554389 11.6042335,8.82172323 11.5900809,9.07149022 C11.5746178,9.35401783 11.445672,9.61715116 11.2255207,9.81266656 C10.6830047,10.2959513 9.81078591,10.2377684 9.3204249,9.6879141 C8.74383794,9.03977794 8.82377386,7.98855507 9.49444933,7.39047714 C10.2948569,6.67813015 11.5266563,6.74967935 12.2379549,7.55034898 C12.6599118,8.02419863 12.8727248,8.63538081 12.8360329,9.2691023 C12.7990789,9.90387213 12.5175996,10.4854387 12.0434879,10.9071334 C11.5101449,11.3822935 10.8866448,11.6105695 10.0891202,11.6105695 C9.80868923,11.6105695 9.50571899,11.5817402 9.17811276,11.5267023 C8.04878856,11.3351182 6.84267347,11.1202085 6.68096703,11.0976692 C5.8682415,10.989166 5.19258641,10.4372151 5.17109544,9.62553788 L5.37683216,6.07612094 C5.37683216,5.84784492 5.19153807,5.6615025 4.96221371,5.6615025 C4.73288935,5.6615025 4.54759527,5.84679658 4.54759527,6.07612094 C4.54759527,6.07612094 4.66841644,8.23203202 4.68256903,8.50433832 C4.7093017,9.02143199 4.23309329,9.43605043 3.70892332,9.43605043 C3.1716491,9.43605043 2.69334401,8.99889268 2.73553969,8.46240472 C2.75886525,8.16546243 2.78350124,7.85829883 2.80813723,7.5707916 L2.89410111,6.10154319 C2.89410111,5.87326717 2.70880702,5.68692474 2.47948266,5.68692474 C2.2501583,5.68692474 2.06486422,5.87221883 2.06486422,6.10154319 L2.26666965,9.57941092 C2.26666965,12.0188979 3.65886509,14.002095 6.0933725,13.9999983 C8.54937088,13.9968533 15.5111343,13.9999983 15.5111343,13.9999983 C15.7116293,13.9999983 15.8735978,13.8372436 15.8735978,13.6375348 C15.8735978,13.4370398 15.7024563,13.3366612 15.5121826,13.2761196 C15.4199287,13.2475524 14.4279371,12.7734406 13.1298301,12.3271099 Z" id="Page-1" fill="#FFFFFF"></path>
        </g>
    </g>
</svg>