<?xml version="1.0" encoding="UTF-8" standalone="no"?>
<svg width="18px" height="18px" viewBox="0 0 18 18" version="1.1" xmlns="http://www.w3.org/2000/svg" xmlns:xlink="http://www.w3.org/1999/xlink">
    <!-- Generator: Sketch 39.1 (31720) - http://www.bohemiancoding.com/sketch -->
    <title>warning-compatibility</title>
    <desc>Created with Sketch.</desc>
    <defs></defs>
    <g id="Page-1" stroke="none" stroke-width="1" fill="none" fill-rule="evenodd">
        <g id="warning-compatibility">
            <rect id="Rectangle-2351" fill="#FF9D00" x="0" y="0" width="18" height="18" rx="4"></rect>
            <polygon id="Fill-1" fill="#FFFFFF" points="5.22253369 14.9511887 3.41746631 13.2427925 5.38598383 12.5432453 4.63212938 8.96088679 6.97045822 10.7516981 8.41994609 6.67754717 9.11148248 11.4779811 11.0851752 10.0416038 10.7684097 12.5979434 13.2977898 12.5979434 11.1043666 14.5476981 11.4834501 14.9511887 14.4408625 14.9511887 13.523558 13.9631887 16.4481941 11.3685849 12.0115364 11.3685849 12.4775202 7.57356604 9.91342318 9.436 8.86630728 2.15035849 6.46587601 8.88411321 2.92733154 6.18035849 4.09886792 11.7136981 1.19450135 12.7456038 3.53283019 14.9511887"></polygon>
            <polygon id="Fill-2" fill="#FFFFFF" points="10.3261456 14.9511887 9.8890566 14.4768113 10.9840431 13.4986226 9.85606469 13.4986226 10.0574663 11.8601321 8.52603774 12.9859811 8.09822102 10.0033396 7.34005391 12.1228302 5.87525606 11.0085094 6.33196765 13.1488491 5.04981132 13.6136604 6.47083558 14.9511887"></polygon>
        </g>
    </g>
</svg>